<?xml version="1.0" encoding="utf-8"?>
<!-- Generator: Adobe Illustrator 24.0.3, SVG Export Plug-In . SVG Version: 6.00 Build 0)  -->
<svg version="1.1" id="Calque_1" xmlns="http://www.w3.org/2000/svg" xmlns:xlink="http://www.w3.org/1999/xlink" x="0px" y="0px"
	 viewBox="0 0 16 16" style="enable-background:new 0 0 16 16;" xml:space="preserve">
<style type="text/css">
	.st0{fill:#FFFFFF;}
</style>
<path class="st0" d="M12.3,9L9.4,6.1l0,0L8,4.7c0,0-0.1-0.1-0.1-0.1c-0.1,0-0.1,0-0.1,0.1L6.5,6.1l0,0L3.6,9C3.6,9,3.6,9.1,3.6,9.1
	L5,10.5c0.1,0.1,0.1,0.1,0.2,0l2.7-2.7C8,7.7,8,7.7,8.1,7.8l2.7,2.7c0.1,0.1,0.1,0.1,0.2,0l1.4-1.4C12.4,9.1,12.4,9,12.3,9z"/>
</svg>
