<svg enable-background="new 0 0 512 512" viewBox="0 0 512 512" xmlns="http://www.w3.org/2000/svg"><path d="m495.304 478.603h-22.261v-116.87c0-27.618-22.469-50.087-50.087-50.087h-16.696v-116.87c0-27.618-22.469-50.087-50.087-50.087h-83.478v-14.002c29.497-10.461 42.313-45.135 26.713-72.192-.001-.002-.002-.004-.003-.007l-28.945-50.145c-6.423-11.126-22.51-11.108-28.92.001l-28.944 50.147c-15.637 27.098-2.736 61.754 26.708 72.196v14.002h-83.478c-27.618 0-50.087 22.469-50.087 50.087v116.87h-16.695c-27.618 0-50.087 22.469-50.087 50.087v116.87h-22.261c-9.221 0-16.696 7.475-16.696 16.696s7.475 16.696 16.696 16.696h478.609c9.22 0 16.696-7.475 16.696-16.696s-7.476-16.696-16.697-16.696zm-253.787-403.421 14.483-25.094 14.481 25.088c6.37 11.042-1.65 24.992-14.481 24.992-12.865 0-20.829-13.986-14.483-24.986zm-102.387 119.595c0-9.206 7.49-16.696 16.696-16.696h200.348c9.206 0 16.696 7.49 16.696 16.696v48.108c-1.557-1.574-3.241-3.367-5.13-5.423-9.682-10.534-22.943-24.96-45.692-24.96-22.738 0-35.995 14.423-45.675 24.953-9.253 10.066-13.753 14.167-21.108 14.167-7.591 0-12.475-4.878-21.158-14.226-9.758-10.505-23.121-24.893-45.625-24.893-22.737 0-35.995 14.423-45.675 24.953-1.309 1.424-2.521 2.73-3.677 3.942zm0 87.076c12.665-4.841 21.384-14.319 28.261-21.8 9.248-10.062 13.746-14.16 21.091-14.16 7.591 0 12.476 4.878 21.159 14.226 9.758 10.505 23.12 24.893 45.624 24.893 22.748 0 36.009-14.426 45.692-24.96 9.248-10.062 13.746-14.16 21.091-14.16 7.355 0 11.855 4.1 21.108 14.167 7.155 7.784 16.268 17.686 29.714 22.327v29.26h-233.74zm-66.782 196.75v-55.261c.009.01.019.02.028.031 11.611 12.74 26.062 28.596 49.323 28.596 22.748 0 36.009-14.426 45.692-24.96 9.248-10.062 13.746-14.16 21.091-14.16 7.591 0 12.476 4.878 21.159 14.226 9.758 10.505 23.12 24.893 45.624 24.893 22.748 0 36.009-14.426 45.692-24.96 9.248-10.062 13.746-14.16 21.091-14.16 7.355 0 11.855 4.1 21.108 14.167 9.68 10.531 22.936 24.953 45.675 24.953 22.748 0 36.009-14.426 45.692-24.96 1.889-2.056 3.573-3.849 5.13-5.423v57.018zm367.304-96.519c-13.446 4.641-22.56 14.544-29.714 22.327-9.253 10.066-13.753 14.167-21.108 14.167-7.346 0-11.843-4.098-21.091-14.16-9.682-10.534-22.943-24.96-45.692-24.96-22.738 0-35.995 14.423-45.675 24.953-9.253 10.066-13.753 14.167-21.108 14.167-7.591 0-12.475-4.878-21.158-14.226-9.758-10.505-23.121-24.893-45.625-24.893-22.738 0-35.995 14.423-45.675 24.953-9.253 10.066-13.753 14.167-21.108 14.167-7.943 0-14.609-6.686-24.644-17.696-7.037-7.722-14.758-16.165-24.708-21.733v-17.416c0-9.206 7.49-16.696 16.696-16.696h333.913c9.206 0 16.696 7.49 16.696 16.696v20.35z"/></svg>