<svg enable-background="new 0 0 512 512" viewBox="0 0 512 512" xmlns="http://www.w3.org/2000/svg"><path d="m12.3 95.5v321.1c0 20.3 16.5 36.9 36.9 36.9h413.7c20.3 0 36.8-16.5 36.8-36.9v-321.1c0-20.3-16.5-36.9-36.8-36.9h-413.7c-20.3 0-36.9 16.5-36.9 36.9zm450.5 333.4h-413.6c-6.8 0-12.4-5.5-12.4-12.4v-240.8h438.3v240.9c.1 6.7-5.5 12.3-12.3 12.3zm12.4-333.4v55.7h-438.4v-55.7c0-6.8 5.5-12.4 12.4-12.4h413.7c6.7 0 12.3 5.6 12.3 12.4z"/><path d="m70.9 129.4c3.2 0 6.4-1.3 8.7-3.6s3.6-5.4 3.6-8.7c0-3.2-1.3-6.4-3.6-8.7-4.6-4.6-12.8-4.6-17.3 0-2.3 2.3-3.6 5.4-3.6 8.7 0 3.2 1.3 6.4 3.6 8.7 2.2 2.3 5.3 3.6 8.6 3.6z"/><path d="m117.2 129.4c3.2 0 6.4-1.3 8.6-3.6 2.3-2.3 3.6-5.4 3.6-8.7 0-3.2-1.3-6.4-3.6-8.7-4.6-4.6-12.7-4.6-17.3 0-2.3 2.3-3.6 5.4-3.6 8.7 0 3.2 1.3 6.4 3.6 8.7 2.2 2.3 5.4 3.6 8.7 3.6z"/><path d="m163.4 129.4c3.2 0 6.4-1.3 8.7-3.6s3.6-5.4 3.6-8.7c0-3.2-1.3-6.4-3.6-8.7-4.6-4.6-12.8-4.6-17.3 0-2.3 2.3-3.6 5.4-3.6 8.7 0 3.2 1.3 6.4 3.6 8.7 2.2 2.3 5.4 3.6 8.6 3.6z"/><path d="m337.6 232.3c-5.2-4.4-12.9-3.7-17.3 1.4-4.4 5.2-3.7 12.9 1.4 17.3l61.8 52.3-61.8 52.5c-5.2 4.4-5.8 12.1-1.4 17.3 2.4 2.9 5.9 4.3 9.3 4.3 2.8 0 5.6-1 7.9-2.9l72.9-61.8c2.7-2.3 4.3-5.7 4.3-9.4 0-3.6-1.6-7-4.3-9.3z"/><path d="m128.4 303.3 61.7-52.3c5.2-4.4 5.8-12.1 1.4-17.3s-12.1-5.8-17.3-1.4l-72.8 61.6c-2.7 2.3-4.3 5.7-4.3 9.3s1.6 7 4.3 9.3l72.8 61.8c2.3 2 5.1 2.9 7.9 2.9 3.5 0 6.9-1.5 9.3-4.3 4.4-5.2 3.8-12.9-1.4-17.3z"/><path d="m291.1 214.9c-6.3-2.5-13.4.5-15.9 6.8l-61.7 154.3c-2.5 6.3.5 13.4 6.8 15.9 1.5.6 3 .9 4.5.9 4.9 0 9.5-2.9 11.4-7.7l61.7-154.3c2.6-6.3-.5-13.4-6.8-15.9z"/></svg>