<svg viewBox="0 0 556.9 369.19" xmlns="http://www.w3.org/2000/svg" xmlns:xlink="http://www.w3.org/1999/xlink"><linearGradient id="a" gradientTransform="matrix(1 0 0 -1 -.03 371.89)" gradientUnits="userSpaceOnUse" x1="289.35" x2="290.8" y1="9.87" y2="135.99"><stop offset="0" stop-color="#010101" stop-opacity="0"/><stop offset=".95" stop-color="#010101"/></linearGradient><linearGradient id="b" gradientTransform="matrix(1 0 0 -1 -.4 368.23)" x1="293.17" x2="294.84" xlink:href="#a" y1="371.32" y2="-246.88"/><linearGradient id="c" x1="290.51" x2="290.64" xlink:href="#a" y1="89.98" y2="45"/><path d="m234.34 4c-45.22-9.91-97.65-2.18-128.21 33.37-13.13 15.17-21.13 34.19-28.53 53.05-9.53 24.35-18.49 49.38-33.82 70.41-14 19.27-33.47 35.39-40.73 58.24-10.69 33.67 8.72 69.4 31 96.48 12 14.53 25.39 28.44 42.2 36.5 14.3 6.84 30.24 9.07 45.94 10.8 90.16 9.95 181.17 6.15 271.81 2.33 25.49-1.07 51.09-2.16 76.15-7 19.76-3.84 39.45-10.21 55.76-22.25s28.92-30.42 30.8-50.9c1.68-18.36-5.22-36.49-14.3-52.41-7.28-12.74-16.23-25.28-17.78-39.88-1.41-13.19 3.42-26.13 5.75-39.18 7.16-40.06-11.58-83.67-45.28-105.35-22.69-14.59-49.95-19.29-76.41-23.68l-62.76-10.41c-18.59-3.09-34-.87-52.36.23-20.19 1.2-39.75-6.11-59.23-10.35z" fill="#7100cf" opacity=".24" transform="translate(-.03)"/><path d="m350.3 354.46h-122.04l21.29-43.14h84.6z" fill="#7100cf"/><path d="m347.84 348.18h-116.72l18.43-36.86h84.6z" fill="url(#a)"/><path d="m218.28 351.35h143.3v10.45h-143.3z" fill="#7100cf"/><path d="m469.5 61.89v246.71a11.38 11.38 0 0 1 -11.27 11.49h-330a11.4 11.4 0 0 1 -11.3-11.49v-246.71a11.46 11.46 0 0 1 11.3-11.55h330a11.44 11.44 0 0 1 11.27 11.55z" fill="#7100cf" transform="translate(-.03)"/><path d="m469.51 61.89v206.31h-352.58v-206.31a11.43 11.43 0 0 1 11.29-11.55h330a11.43 11.43 0 0 1 11.29 11.55z" fill="url(#b)" transform="translate(-.03)"/><path d="m129.84 64.88h328.17v194.36h-328.17z" fill="#fff"/><ellipse cx="290.51" cy="293.73" fill="url(#c)" rx="7.78" ry="7.96"/></svg>