<svg enable-background="new 0 0 352.5 311.8" viewBox="0 0 352.5 311.8" xmlns="http://www.w3.org/2000/svg" xmlns:xlink="http://www.w3.org/1999/xlink"><linearGradient id="a"><stop offset="0" stop-color="#010101" stop-opacity="0"/><stop offset=".95" stop-color="#010101"/></linearGradient><linearGradient id="b" gradientUnits="userSpaceOnUse" x1="172.4426" x2="173.8926" xlink:href="#a" y1="312.0198" y2="185.8998"/><linearGradient id="c" gradientUnits="userSpaceOnUse" x1="175.8482" x2="177.5182" xlink:href="#a" y1="-53.09" y2="565.1101"/><linearGradient id="d" gradientUnits="userSpaceOnUse" x1="173.5674" x2="173.6974" xlink:href="#a" y1="231.9101" y2="276.8901"/><path d="m233.4 304.5h-122l21.3-43.2h84.6z" fill="#6f00cc"/><path d="m231 298.2h-116.8l18.5-36.9h84.6z" fill="url(#b)"/><path d="m101.4 301.4h143.3v10.5h-143.3z" fill="#6f00cc"/><path d="m352.6 11.9v246.7c.1 6.3-5 11.4-11.3 11.5h-330c-6.3-.1-11.3-5.2-11.3-11.5v-246.7c-.1-6.3 5-11.5 11.3-11.6h330c6.3.1 11.4 5.3 11.3 11.6z" fill="#6f00cc"/><path d="m352.6 11.9v206.3h-352.6v-206.3c-.1-6.3 5-11.5 11.3-11.6h330c6.3.1 11.4 5.3 11.3 11.6z" fill="url(#c)"/><path d="m12.4 12.1h328.2v194.4h-328.2z" fill="#fff"/><ellipse cx="173.6" cy="243.7" fill="url(#d)" rx="7.8" ry="8"/></svg>