<svg enable-background="new 0 0 512 512" height="512" viewBox="0 0 512 512" width="512" xmlns="http://www.w3.org/2000/svg"><path d="m240.93 364.99c-2.63 0-5.21 1.069-7.07 2.93-1.859 1.86-2.93 4.43-2.93 7.07 0 2.63 1.07 5.21 2.93 7.069 1.86 1.86 4.44 2.931 7.07 2.931s5.21-1.07 7.07-2.931c1.859-1.87 2.93-4.439 2.93-7.069 0-2.641-1.07-5.21-2.93-7.07s-4.44-2.93-7.07-2.93z"/><path d="m431.77 335.12c-2.64 0-5.22 1.069-7.08 2.93-1.859 1.86-2.92 4.43-2.92 7.07 0 2.63 1.061 5.21 2.92 7.069 1.86 1.86 4.44 2.931 7.08 2.931 2.63 0 5.2-1.07 7.07-2.931 1.86-1.87 2.93-4.439 2.93-7.069s-1.069-5.21-2.93-7.07c-1.87-1.861-4.441-2.93-7.07-2.93z"/><path d="m135.939 287c-2.63 0-5.21 1.069-7.069 2.93-1.86 1.86-2.931 4.44-2.931 7.07s1.07 5.21 2.931 7.069c1.859 1.86 4.439 2.931 7.069 2.931s5.21-1.07 7.07-2.931c1.86-1.859 2.93-4.439 2.93-7.069s-1.069-5.21-2.93-7.07-4.44-2.93-7.07-2.93z"/><path d="m511.999 108.537c0-5.523-4.478-10-10-10h-15.399c-2.103-7.023-4.907-13.797-8.385-20.255l10.886-10.887c3.905-3.905 3.905-10.237 0-14.142l-30.354-30.353c-3.906-3.905-10.236-3.905-14.143 0l-10.886 10.886c-6.459-3.478-13.231-6.282-20.255-8.386v-15.4c0-5.522-4.478-10-10-10h-42.927c-5.522 0-10 4.477-10 10v15.437c-7.009 2.108-13.768 4.914-20.212 8.391l-10.929-10.929c-3.906-3.905-10.236-3.905-14.143 0l-30.354 30.354c-2.38 2.381-3.301 5.662-2.78 8.746h-232.085c-22.074.001-40.033 17.96-40.033 40.035v275.933c0 22.074 17.959 40.033 40.033 40.033h158.895v34h-23.964c-19.87 0-36.036 16.166-36.036 36.036v13.964c0 5.522 4.478 10 10 10h184c5.522 0 10-4.478 10-10v-13.964c0-19.87-16.165-36.036-36.035-36.036h-23.965v-34h158.804c22.075 0 40.034-17.959 40.034-40.033v-163.886l7.335-7.335c1.875-1.875 2.929-4.419 2.929-7.071s-1.054-5.196-2.929-7.071l-10.929-10.928c3.478-6.445 6.283-13.203 8.392-20.212h15.437c2.652 0 5.196-1.054 7.071-2.929s2.929-4.419 2.929-7.071zm-189.071 379.499v3.964h-164v-3.964c0-8.843 7.193-16.036 16.036-16.036h131.929c8.841 0 16.035 7.193 16.035 16.036zm-60-36.036h-44v-34h44zm198.838-74.033c0 11.046-8.987 20.033-20.034 20.033h-401.699c-11.046 0-20.033-8.987-20.033-20.033v-22.85h371.771c5.522 0 10-4.478 10-10s-4.478-10-10-10h-371.771v-28.117h76.333c5.522 0 10-4.478 10-10s-4.478-10-10-10h-76.333v-184.966c0-11.047 8.987-20.034 20.033-20.034h243.976c-2.609 5.327-4.781 10.849-6.485 16.537h-15.523c-2.652 0-5.196 1.054-7.071 2.929s-2.93 4.419-2.93 7.071l.001 42.926c0 5.523 4.478 10 10 10h15.56c2.1 6.979 4.892 13.71 8.349 20.131l-11.01 11.011c-3.905 3.905-3.905 10.237 0 14.142l30.354 30.353c3.906 3.905 10.236 3.905 14.143 0l11.01-11.01c6.421 3.458 13.153 6.25 20.131 8.349l-.001 15.561c0 5.522 4.478 10 10 10l42.927-.001c5.522 0 10-4.477 10-10v-15.524c6.993-2.094 13.739-4.884 20.174-8.342l10.967 10.967c1.876 1.875 4.419 2.929 7.071 2.929s5.195-1.054 7.071-2.929l3.019-3.019zm30.234-236.504h-13.157c-4.689 0-8.749 3.259-9.764 7.838-2.253 10.173-6.244 19.789-11.864 28.578-2.532 3.949-1.98 9.144 1.348 12.472l9.325 9.325-16.212 16.211-9.353-9.353c-3.045-3.043-7.696-3.799-11.547-1.874-.31.154-.61.325-.901.51-8.788 5.599-18.397 9.571-28.561 11.809-4.585 1.009-7.851 5.071-7.851 9.766v13.255h-22.927v-13.281c0-4.69-3.259-8.75-7.838-9.764-10.148-2.247-19.744-6.227-28.52-11.828-1.606-1.026-3.474-1.571-5.38-1.571-2.652 0-5.198 1.055-7.074 2.93l-9.4 9.401-16.211-16.212 9.4-9.4c3.328-3.328 3.88-8.522 1.349-12.471-5.596-8.771-9.571-18.36-11.817-28.503-1.014-4.579-5.074-7.838-9.764-7.838h-13.281l.001-22.926h13.253c4.694 0 8.757-3.266 9.767-7.851 2.234-10.153 6.202-19.753 11.794-28.538 2.53-3.948 1.979-9.143-1.349-12.47l-9.354-9.354 16.212-16.211 9.324 9.324c3.429 3.428 8.729 3.845 12.613 1.258 8.75-5.572 18.316-9.533 28.437-11.773 4.578-1.014 7.838-5.074 7.838-9.763l.001-13.159h22.927v13.13c0 4.694 3.266 8.757 7.851 9.766 10.191 2.244 19.824 6.231 28.629 11.852.294.188.598.359.909.515 3.847 1.924 8.503 1.17 11.547-1.874l9.276-9.277 16.211 16.212-9.276 9.276c-.466.466-.884.976-1.249 1.524-2.207 3.31-2.239 7.61-.098 10.949 5.615 8.801 9.599 18.427 11.839 28.611 1.009 4.585 5.071 7.851 9.767 7.851h13.131v22.928z"/><path d="m382 68c-34.187 0-62 27.813-62 62s27.813 62 62 62 62-27.813 62-62-27.813-62-62-62zm0 104c-23.159 0-42-18.841-42-42s18.841-42 42-42 42 18.841 42 42-18.841 42-42 42z"/><path d="m163.67 187.22c-2.641 0-5.21 1.07-7.07 2.93-1.87 1.86-2.93 4.44-2.93 7.08 0 2.63 1.06 5.21 2.93 7.07 1.86 1.86 4.43 2.92 7.07 2.92 2.63 0 5.21-1.06 7.07-2.92 1.859-1.86 2.93-4.44 2.93-7.07 0-2.64-1.07-5.22-2.93-7.08s-4.44-2.93-7.07-2.93z"/><path d="m241.719 179.822c.687-2.562.327-5.291-.999-7.588l-16.885-29.244c-2.761-4.782-8.877-6.422-13.66-3.66l-9.618 5.553c-3.159-2.234-6.501-4.167-10.006-5.786v-11.097c0-5.523-4.478-10-10-10h-33.769c-5.522 0-10 4.477-10 10v11.097c-3.505 1.62-6.847 3.552-10.006 5.786l-9.618-5.553c-2.297-1.326-5.027-1.684-7.588-.999-2.563.687-4.746 2.362-6.072 4.659l-16.884 29.244c-2.762 4.783-1.123 10.898 3.66 13.66l9.622 5.556c-.172 1.918-.259 3.847-.259 5.774s.087 3.856.259 5.774l-9.622 5.556c-4.783 2.761-6.422 8.877-3.66 13.66l16.884 29.244c1.326 2.297 3.51 3.973 6.072 4.659 2.561.686 5.291.328 7.588-.999l9.618-5.553c3.159 2.234 6.501 4.167 10.006 5.786v11.097c0 5.522 4.478 10 10 10h33.769c5.522 0 10-4.478 10-10v-11.097c3.505-1.62 6.847-3.552 10.006-5.786l9.618 5.553c4.784 2.761 10.898 1.123 13.66-3.66l16.885-29.244c1.326-2.297 1.686-5.026.999-7.588s-2.362-4.746-4.659-6.072l-9.623-5.554c.173-1.919.26-3.848.26-5.774s-.087-3.855-.26-5.775l9.623-5.556c2.296-1.327 3.972-3.511 4.659-6.073zm-34.946 8.391c.612 2.95.923 5.982.923 9.012s-.311 6.062-.923 9.012c-.877 4.225 1.055 8.536 4.791 10.693l6.835 3.946-6.885 11.924-6.846-3.952c-3.739-2.159-8.445-1.674-11.666 1.207-4.56 4.078-9.8 7.108-15.575 9.006-4.104 1.349-6.877 5.18-6.877 9.5v7.89h-13.769v-7.89c0-4.32-2.773-8.151-6.877-9.5-5.775-1.898-11.016-4.929-15.575-9.006-3.22-2.881-7.925-3.367-11.666-1.207l-6.846 3.952-6.884-11.924 6.834-3.946c3.736-2.157 5.668-6.468 4.791-10.693-.611-2.947-.922-5.979-.922-9.012s.311-6.064.922-9.012c.877-4.225-1.054-8.535-4.791-10.693l-6.834-3.946 6.884-11.923 6.846 3.952c3.739 2.16 8.445 1.674 11.666-1.207 4.56-4.078 9.8-7.108 15.575-9.006 4.104-1.349 6.877-5.18 6.877-9.5v-7.89h13.769v7.89c0 4.32 2.773 8.151 6.877 9.5 5.775 1.898 11.016 4.929 15.575 9.006 3.219 2.879 7.924 3.366 11.666 1.207l6.846-3.953 6.885 11.924-6.835 3.946c-3.736 2.158-5.668 6.469-4.791 10.693z"/></svg>