<?xml version="1.0" encoding="utf-8"?>
<!-- Generator: Adobe Illustrator 24.0.3, SVG Export Plug-In . SVG Version: 6.00 Build 0)  -->
<svg version="1.1" id="Calque_1" xmlns="http://www.w3.org/2000/svg" xmlns:xlink="http://www.w3.org/1999/xlink" x="0px" y="0px"
	 viewBox="0 0 110 110" style="enable-background:new 0 0 110 110;" xml:space="preserve">
<style type="text/css">
	.st0{fill:#FCFCFC;}
</style>
<path class="st0" d="M55,0C24.8,0,0,24.8,0,55c0,25.8,18.1,49.2,42.1,55V91.7c-2.4,0.5-4.6,0.5-7-0.2c-3.2-0.9-5.9-3.2-7.8-6.4
	c-1.3-2.1-3.5-4.4-5.8-4.2L21,74.5c5-0.5,9.3,3.1,11.9,7.3c1.1,1.9,2.4,3.1,4.1,3.6c1.7,0.5,3.4,0.3,5.4-0.5
	c0.5-4.1,2.4-5.6,3.8-7.8c-14.3-2.1-20.1-9.7-22.3-15.7c-3-8-1.4-17.9,3.9-24.2c0.1-0.1,0.3-0.5,0.2-0.7c-2.4-7.3,0.5-13.4,0.6-14.1
	c2.8,0.8,3.2-0.9,12.2,4.6l1.5,0.9c0.6,0.4,0.5,0.1,1.1,0.1c3.7-1,7.6-1.6,11.5-1.6c4,0,7.9,0.6,11.7,1.7l0.5,0
	c0.1,0,0.3-0.1,0.5-0.2c11.2-6.8,10.8-4.6,13.7-5.5c0.1,0.6,3,6.8,0.6,14.1c-0.3,1,9.6,10.1,4.1,24.9c-2.3,6-8,13.6-22.3,15.7
	c1.8,2.8,4.1,4.3,4.1,10.1V110c24-5.8,42.1-29.2,42.1-55C110,24.8,85.2,0,55,0z"/>
</svg>
