<?xml version="1.0" encoding="utf-8"?>
<!-- Generator: Adobe Illustrator 24.0.3, SVG Export Plug-In . SVG Version: 6.00 Build 0)  -->
<svg version="1.1" id="Calque_1" xmlns="http://www.w3.org/2000/svg" xmlns:xlink="http://www.w3.org/1999/xlink" x="0px" y="0px"
	 viewBox="0 0 86 88" style="enable-background:new 0 0 86 88;" xml:space="preserve">
<style type="text/css">
	.st0{fill:#FFFFFF;}
</style>
<g>
	<path class="st0" d="M75.1,0H12.9C5.8,0,0,5.8,0,12.9v62.2C0,82.2,5.8,88,12.9,88h62.2C82.2,88,88,82.2,88,75.1V12.9
		C88,5.8,82.2,0,75.1,0z M44.2,67c-12.8,0-23.2-10.4-23.2-23.2s10.4-23.2,23.2-23.2S67.4,31,67.4,43.8S57,67,44.2,67z M70,25.8
		c-4.3,0-7.7-3.5-7.7-7.7s3.5-7.7,7.7-7.7c4.3,0,7.7,3.5,7.7,7.7C77.7,22.3,74.2,25.8,70,25.8z"/>
	<path class="st0" d="M70,15.5c-1.4,0-2.6,1.1-2.6,2.6c0,1.5,1.1,2.6,2.6,2.6s2.6-1.1,2.6-2.6C72.6,16.6,71.4,15.5,70,15.5L70,15.5z
		"/>
	<path class="st0" d="M44.2,25.8c-10,0-18,8.1-18,18s8.1,18,18,18s18-8.1,18-18l0,0C62.2,33.9,54.1,25.8,44.2,25.8z"/>
</g>
</svg>
