<?xml version="1.0" encoding="utf-8"?>
<!-- Generator: Adobe Illustrator 24.0.3, SVG Export Plug-In . SVG Version: 6.00 Build 0)  -->
<svg version="1.1" id="Calque_1" xmlns="http://www.w3.org/2000/svg" xmlns:xlink="http://www.w3.org/1999/xlink" x="0px" y="0px"
	 viewBox="0 0 98 98" style="enable-background:new 0 0 98 98;" xml:space="preserve">
<style type="text/css">
	.st0{fill:#FFFFFF;}
</style>
<path class="st0" d="M83.6,0H14.4C6.4,0,0,6.4,0,14.4v69.3C0,91.6,6.4,98,14.4,98h69.3C91.6,98,98,91.6,98,83.6V14.4
	C98,6.4,91.6,0,83.6,0z M34.6,77.7H23.2V37.5h11.5C34.6,37.5,34.6,77.7,34.6,77.7z M34.6,31.8H23.2V20.3h11.5
	C34.6,20.3,34.6,31.8,34.6,31.8z M74.8,77.7H63.4v-23c0-3.2-2.6-5.8-5.8-5.8s-5.8,2.6-5.8,5.8v23H40.4V37.5h11.5v2.1
	c3-0.9,4.9-2.1,8.6-2.1c7.8,0,14.4,7,14.4,15.3V77.7z"/>
</svg>
