<svg enable-background="new 0 0 512 512" viewBox="0 0 512 512" xmlns="http://www.w3.org/2000/svg"><path d="m256 60c-57.897 0-105 47.103-105 105 0 35.943 18.126 69.015 48.487 88.467 31.003 19.863 69.06 21.974 104.426 5.703 7.525-3.462 10.82-12.37 7.357-19.896-3.462-7.525-12.369-10.82-19.896-7.358-25.86 11.898-53.454 10.545-75.703-3.709-21.71-13.909-34.671-37.538-34.671-63.207 0-41.355 33.645-75 75-75s75 33.645 75 75c0 8.271-6.729 15-15 15-7.558 0-14.618-5.732-14.998-14.772-.001-.076-.002-.152-.002-.228 0-24.813-20.187-45-45-45s-45 20.187-45 45 20.187 45 45 45c11.516 0 22.031-4.353 29.999-11.494 7.967 7.142 18.484 11.494 30.001 11.494 24.813 0 45-20.187 45-45 0-57.897-47.103-105-105-105zm14.789 107.406c-1.158 7.129-7.339 12.594-14.789 12.594-8.271 0-15-6.729-15-15s6.729-15 15-15c7.691 0 14.04 5.82 14.895 13.285-.224 1.363-.261 2.75-.106 4.121z"/><path d="m480.999 196.976c-.004-3.879-1.566-7.756-4.393-10.583l-55.606-55.606v-115.787c0-8.284-6.716-15-15-15h-300c-8.284 0-15 6.716-15 15v115.787l-55.606 55.606c-.052.052-.096.11-.147.163-2.811 2.896-4.24 6.709-4.246 10.42 0 .01-.001.019-.001.029v269.995c0 24.845 20.216 45 45 45h360c24.839 0 45-20.207 45-45v-269.995c0-.01-.001-.019-.001-.029zm-59.999-23.763 23.787 23.787-23.787 23.787zm-300-36.208c0-.003 0-.007 0-.01v-106.995h270v106.995.01 113.782l-81.213 81.213h-107.574l-81.213-81.213zm-30 36.208v47.574l-23.787-23.787zm-30 287.574v-227.574l113.787 113.787zm21.214 21.213 119.999-120h107.574l119.999 120zm368.786-21.213-113.787-113.787 113.787-113.787z"/></svg>