<svg enable-background="new 0 0 512 512" height="512" viewBox="0 0 512 512" width="512" xmlns="http://www.w3.org/2000/svg"><path d="m316 116c5.52 0 10-4.48 10-10s-4.48-10-10-10-10 4.48-10 10 4.48 10 10 10z"/><path d="m344.3 134.814c22.691 16.581 40.246 39.04 50.765 64.947 2.068 5.092 7.886 7.592 13.027 5.504 5.117-2.078 7.581-7.91 5.504-13.027-11.919-29.354-31.801-54.796-57.495-73.572-4.458-3.257-10.716-2.285-13.975 2.174-3.258 4.46-2.285 10.716 2.174 13.974z"/><path d="m502 246h-36.244c-5.082-107.854-91.903-194.674-199.756-199.756v-36.244c0-5.522-4.478-10-10-10s-10 4.478-10 10v36.244c-107.854 5.082-194.674 91.902-199.756 199.756h-36.244c-5.523 0-10 4.478-10 10s4.477 10 10 10h36.244c5.082 107.854 91.902 194.674 199.756 199.756v36.244c0 5.522 4.478 10 10 10s10-4.478 10-10v-36.244c107.853-5.082 194.674-91.902 199.756-199.756h36.244c5.522 0 10-4.478 10-10s-4.478-10-10-10zm-56.263 0h-100.296c-4.626-41.652-37.789-74.815-79.441-79.441v-100.296c96.824 5.045 174.692 82.913 179.737 179.737zm-199.737 0h-59.274c4.399-30.608 28.666-54.875 59.274-59.274zm0 20v59.274c-30.609-4.399-54.875-28.666-59.274-59.274zm20-.01h59.274c-4.399 30.608-28.666 54.885-59.274 59.284zm0-19.99v-59.274c30.608 4.399 54.875 28.666 59.274 59.274zm-20-179.737v100.296c-41.652 4.626-74.815 37.789-79.441 79.441h-100.296c5.045-96.824 82.913-174.692 179.737-179.737zm-179.737 199.737h100.296c4.626 41.652 37.789 74.815 79.441 79.441v100.296c-96.824-5.045-174.692-82.913-179.737-179.737zm199.737 179.737v-100.296c41.652-4.626 74.815-37.799 79.441-79.451h100.296c-5.045 96.824-82.913 174.702-179.737 179.747z"/></svg>