<svg enable-background="new 0 0 459.8 459.8" viewBox="0 0 459.8 459.8" xmlns="http://www.w3.org/2000/svg"><g stroke="#fff" stroke-miterlimit="10" stroke-width="5"><path d="m173.3 115v1.1c.3 5.5 5 9.7 10.4 9.4h175 1.1c5.5-.3 9.7-5 9.4-10.4v-104.6c0-.4 0-.7 0-1.1-.3-5.5-5-9.7-10.4-9.4h-175c-.4 0-.7 0-1.1 0-5.5.3-9.7 5-9.4 10.4zm20.9-94.1h154.1v83.6h-154.1z"/><path d="m421.5 282.1v-104.5c0-.4 0-.7 0-1.1-.3-5.5-5-9.7-10.4-9.4h-227.3c-.4 0-.7 0-1.1 0-5.5.3-9.7 5-9.4 10.4v104.5 1.1c.3 5.5 5 9.7 10.4 9.4h227.3 1.1c5.5-.2 9.7-4.9 9.4-10.4zm-20.9-10.4h-206.4v-83.6h206.4z"/><path d="m369.2 344.8c0-.4 0-.7 0-1.1-.3-5.5-5-9.7-10.4-9.4h-175c-.4 0-.7 0-1.1 0-5.5.3-9.7 5-9.4 10.4v104.5 1.1c.3 5.5 5 9.7 10.4 9.4h175 1.1c5.5-.3 9.7-5 9.4-10.4zm-20.9 94.1h-154.1v-83.6h154.1z"/><path d="m129.4 46.6c-5.5-24.5-29.8-39.9-54.3-34.4-20.7 4.6-35.5 23-35.5 44.3-.6 21.1 13.9 39.6 34.5 44.3v84.6c-24.5 5.4-40.1 29.6-34.7 54.1 3.8 17.4 17.4 30.9 34.7 34.7v84.6c-20.6 4.7-35 23.3-34.5 44.4 0 25.1 20.4 45.4 45.5 45.4s45.4-20.4 45.4-45.5c0-21.3-14.8-39.7-35.5-44.3v-84.6c20.7-4.7 35.3-23.2 35-44.4.3-21.2-14.3-39.7-35-44.4v-84.6c24.5-5.4 39.9-29.7 34.4-54.2zm-19.3 356.7c-.3 13.6-11.4 24.6-25.1 24.6-13.6 0-24.6-11-24.6-24.6s11-24.6 24.6-24.6c13.7.1 24.8 11 25.1 24.6zm-.5-173.4c0 13.6-11 24.6-24.5 24.6-13.4-.3-24-11.2-24-24.6s10.7-24.3 24-24.6c13.5 0 24.5 11 24.5 24.6zm-24.6-148.9c-13.4-.3-24-11.2-24-24.6s10.7-24.3 24-24.6c13.6 0 24.8 10.9 25.1 24.6-.3 13.7-11.4 24.6-25.1 24.6z"/><path d="m215.1 57.5h60.1c5.8 0 10.4-4.7 10.4-10.4s-4.7-10.4-10.4-10.4h-60.1c-5.8 0-10.4 4.7-10.4 10.4s4.6 10.4 10.4 10.4z"/><path d="m327.4 67.9h-112.3c-5.8 0-10.4 4.7-10.4 10.4s4.7 10.4 10.4 10.4h112.3c5.8 0 10.4-4.7 10.4-10.4s-4.6-10.4-10.4-10.4z"/><path d="m215.1 224.7h60.1c5.8 0 10.4-4.7 10.4-10.4s-4.7-10.4-10.4-10.4h-60.1c-5.8 0-10.4 4.7-10.4 10.4s4.6 10.4 10.4 10.4z"/><path d="m215.1 256h112.3c5.8 0 10.4-4.7 10.4-10.4s-4.7-10.4-10.4-10.4h-112.3c-5.8 0-10.4 4.7-10.4 10.4s4.6 10.4 10.4 10.4z"/><path d="m215.1 391.9h60.1c5.8 0 10.4-4.7 10.4-10.4s-4.6-10.5-10.4-10.5h-60.1c-5.8 0-10.4 4.7-10.4 10.4s4.6 10.5 10.4 10.5z"/><path d="m215.1 423.2h112.3c5.8 0 10.4-4.7 10.4-10.4s-4.7-10.4-10.4-10.4h-112.3c-5.8 0-10.4 4.7-10.4 10.4s4.6 10.4 10.4 10.4z"/></g></svg>