<svg enable-background="new 0 0 600 500" viewBox="0 0 600 500" xmlns="http://www.w3.org/2000/svg" xmlns:xlink="http://www.w3.org/1999/xlink"><linearGradient id="a"><stop offset=".01"/><stop offset=".12" stop-opacity=".75"/><stop offset="1" stop-opacity="0"/></linearGradient><linearGradient id="b" gradientUnits="userSpaceOnUse" x1="220.0172" x2="293.4169" xlink:href="#a" y1="310.714" y2="338.6861"/><linearGradient id="c" gradientUnits="userSpaceOnUse" x1="182.6106" x2="160.3351" xlink:href="#a" y1="391.7829" y2="257.443"/><linearGradient id="d" gradientUnits="userSpaceOnUse" x1="190.5808" x2="227.2734" xlink:href="#a" y1="384.2557" y2="301.6828"/><linearGradient id="e" gradientUnits="userSpaceOnUse" x1="385.7312" x2="322.8338" xlink:href="#a" y1="318.4872" y2="529.8203"/><linearGradient id="f" gradientUnits="userSpaceOnUse" x1="126.1723" x2="187.1124" xlink:href="#a" y1="328.4846" y2="617.4827"/><linearGradient id="g" gradientUnits="userSpaceOnUse" x1="381.3546" x2="382.2165" xlink:href="#a" y1="380.0664" y2="340.3064"/><linearGradient id="h" gradientUnits="userSpaceOnUse" x1="443.7777" x2="449.6789" xlink:href="#a" y1="404.6331" y2="255.2189"/><g fill="#7000cd"><path d="m67.6 25.2h514.9c7.2 0 13.1 5.8 13.1 13.1v320.5c0 7.2-5.8 13-13.1 13h-514.9c-7.2 0-13.1-5.8-13.1-13v-320.5c-.1-7.3 5.8-13.1 13.1-13.1z" opacity=".48"/><path d="m584.8 397.1c-.4 11.4-2.9 22.9-9.3 32.3-8 11.8-21 19.1-33.6 26.1l-35.6 19.7c-15.6 8.6-32.1 17.4-50 17.7-12.6.1-24.8-3.9-37-7.4-56.7-16.4-116.4-18.7-175-14.5-30.1 2.2-59.9 5.8-89.7 10.4-23.8 3.5-52.3 15.3-73.8 1.3-23.4-15.2-37.7-39.7-51-63.7-11.5-20.7-23.2-41.9-27-65.3-5.8-36.1 8.2-73.4 30.1-102.6 6.6-8.8 13.7-17.1 21.5-24.8v132.6c0 7.3 5.8 13.1 13.1 13.1h514.9c1.8 8.1 2.7 16.6 2.4 25.1z" opacity=".18"/><path d="m392.4 25.2h-137.6c5.1-3.9 10.8-7.3 16.8-9.9 10.8-4.7 22.8-6.9 34.6-7.7 29.7-2.2 59.5 4.4 86.2 17.6z" opacity=".18"/><path d="m266.4 328.1c1.3 1.8 2.9 3.4 4.8 4.7 2.8 1.5 5.7 2.3 8.8 2.6l46.6 7c.4 0 .9.1 1.3.4.6.6.7 1.3.7 2 .1 8.8-1 17.4-3.5 25.9-.1.7-.4 1.3-.9 1.8-.6.4-1.3.6-2.2.6-15.6 1.3-31.4.9-47.2.4-2.6 0-5.3-.3-7.9-.9-4.4-1.2-7.9-4.2-11.2-7.3-7.2-6.6-35.8-33-37.5-36.7-2.3-5.1-4.1-10.5-5.6-15.9-1.5-5.3 9.2-6 9.1-11.4-.1-3.8.3-7.6 1.3-11.2.7-3.2 2.3-6.3 4.7-8.6 1.6-1.5-.9-11.4 1.3-11.5 2.6 8.8 14.2 26.3 19.3 33.7 5.6 8.6 11.6 16.7 18.1 24.4z"/></g><path d="m266.4 328.1c1.3 1.8 2.9 3.4 4.8 4.7 2.8 1.5 5.7 2.3 8.8 2.6l46.6 7c.4 0 .9.1 1.3.4.6.6.7 1.3.7 2 .1 8.8-1 17.4-3.5 25.9-.1.7-.4 1.3-.9 1.8-.6.4-1.3.6-2.2.6-15.6 1.3-31.4.9-47.2.4-2.6 0-5.3-.3-7.9-.9-4.4-1.2-7.9-4.2-11.2-7.3-7.2-6.6-35.8-33-37.5-36.7-2.3-5.1-4.1-10.5-5.6-15.9-1.5-5.3 9.2-6 9.1-11.4-.1-3.8.3-7.6 1.3-11.2.7-3.2 2.3-6.3 4.7-8.6 1.6-1.5-.9-11.4 1.3-11.5 2.6 8.8 14.2 26.3 19.3 33.7 5.6 8.6 11.6 16.7 18.1 24.4z" fill="url(#b)"/><path d="m148.5 254.1c-3.1 2.8-6.1 5.8-8.8 9.1-6.4 7.9-10.8 17.4-14.8 26.7-10.7 25-19.9 51.9-17.2 78.9 0 1.6.4 3.2 1.3 4.7 1.3 1.6 3.1 2.8 5 3.2 5.1 1.6 10.7 1.8 16.1 1.8 21 .1 42.1.4 63.1-.6 3.2-.1 6.7-.4 9.3-2.2 2-1.5 3.5-3.5 4.5-5.7 5.7-10.7 7.3-22.9 11.7-34.2 5.8-14.6 21.9-27.9 18.6-43.2-14.3-65.6-82.2-44.5-88.8-38.5z" fill="#7000cd"/><path d="m148.5 254.1c-3.1 2.8-6.1 5.8-8.8 9.1-6.4 7.9-10.8 17.4-14.8 26.7-10.7 25-19.9 51.9-17.2 78.9 0 1.6.4 3.2 1.3 4.7 1.3 1.6 3.1 2.8 5 3.2 5.1 1.6 10.7 1.8 16.1 1.8 21 .1 42.1.4 63.1-.6 3.2-.1 6.7-.4 9.3-2.2 2-1.5 3.5-3.5 4.5-5.7 5.7-10.7 7.3-22.9 11.7-34.2 5.8-14.6 21.9-27.9 18.6-43.2-14.3-65.6-82.2-44.5-88.8-38.5z" fill="url(#c)"/><path d="m243.6 200c-2.5 12-5.1 24.2-11.7 34.6-2.5 4.2-5.8 7.6-10.1 9.9-4.2 2.2-9.6 2.5-13.7-.1-2-1.3-4.2-3.4-6.4-2.3-1.6.7-2 2.6-2.3 4.4-.6 4.2-.4 8.5.1 12.6.3 1.2.3 2.3.1 3.7-.6 2.3-2.5 3.9-4.7 4.4-2.2.3-4.5 0-6.6-1-6.4-2.9-11.1-8.8-12.3-15.8-.3-2.3-.4-4.7-.4-7-.3-10.4-1.9-20.7-1.6-31.1s2.9-21.2 9.9-28.9c4.1-4.2 8.9-7.6 14.3-9.9 7.9-3.8 16.8-6.4 25.6-5.1 7 1.2 13.1 5.3 16.9 11.2 4.5 6.8 4.6 12.1 2.9 20.4z" fill="#ffdad2"/><path d="m265.3 173.6c1.2-9.9-3.9-19.7-12.9-24.4-3.8-1.9-8.2-2.8-12.4-3.8-9.8-2.6-19.1-7-29.2-7.9s-21.6 2.6-26 11.7c-.9 1.6-1.6 3.7-3.4 4.1-1 .1-2 0-2.9-.3-6.7-1.2-12.7 4.5-15.8 10.7-4.8 9.9-5.1 21.3-4.1 32.3 1 10.1 3.5 21 11.7 27.2.7.6 2 1.2 2.8.6.3-.4.6-.9.6-1.3.9-3.8 1.2-7.7.9-11.7-.1-2.9-.6-6 .1-8.9s3.2-5.6 6.1-5.6c2.8 0 5 2.6 5.7 5.3.4 2.8.4 5.6-.3 8.2.4 1.2 2-.1 2.2-1.3 2-9.2 2.5-19.4 8.9-26.3 1.3 1.3 2.2 2.9 2.8 4.8 1.9-2 4.8-2.8 7.4-1.9 1.9.9 3.5 1.9 5 3.2 15.7 12 49.6 8.5 52.8-14.7z" fill="#3f3d56"/><path d="m152.9 269.1c-5 3.5-7.3 9.8-7.4 15.9s6.3 44.4 12.3 55.4c4.7 8.5 14.5 30.5 29.2 36.7 4.4 1.8 69.1 1 99.2-2.2-.1-7.2-.6-14.2-1-21.3 0-.9-.3-1.9-.9-2.6-.7-.7-1.9-6-2.9-6-17.5.1-35.2 5.4-52.7 5.8-2.5.1-5.1 0-7.6-.4-2-.6-4.1-1.3-5.8-2.3-13.6-7.6-21-22.6-26.3-37.2-4.1-11.2-7.3-22.9-13.1-33.4-2-3.8-3.9-7.4-8-9.1-5-2.4-10.5-2.5-15 .7z" fill="#7000cd"/><path d="m152.9 269.1c-5 3.5-7.3 9.8-7.4 15.9s6.3 44.4 12.3 55.4c4.7 8.5 14.5 30.5 29.2 36.7 4.4 1.8 69.1 1 99.2-2.2-.1-7.2-.6-14.2-1-21.3 0-.9-.3-1.9-.9-2.6-.7-.7-1.9-6-2.9-6-17.5.1-35.2 5.4-52.7 5.8-2.5.1-5.1 0-7.6-.4-2-.6-4.1-1.3-5.8-2.3-13.6-7.6-21-22.6-26.3-37.2-4.1-11.2-7.3-22.9-13.1-33.4-2-3.8-3.9-7.4-8-9.1-5-2.4-10.5-2.5-15 .7z" fill="url(#d)"/><path d="m283.6 343.4c9.1-.9 19.1 1.2 25 8.2.6.6 1 1.5 1.2 2.3 0 .7-.3 1.6-.7 2.2-3.4 5.7-10.8 7-16.9 9.2-3.2 1.2-6.3 2.6-9.2 4.5-1.6 1.3-3.5 2.2-5.6 2.8-4.4.7-8-3.2-10.1-7.2-2.3-4.4-5.8-13.4-1.5-17.5 3.6-3.1 13.3-4 17.8-4.5z" fill="#ffdad2"/><path d="m359 341.3c1.6.9 3.1 2.2 4.1 3.8s1.2 3.7.4 5.3c-.7 1-1.6 1.9-2.8 2.5-8 4.8-18 5.7-26.1 10.2-1.6 1.2-3.7 2-5.7 2.5-2.5 0-4.7-1-6.3-2.9-1.5-1.9-2.6-3.9-3.4-6.3-9.5-25.4 26-23.9 39.8-15.1z" fill="#ffdad2"/><path d="m127.4 330h37.8v31.1c0 6-5 11-11 11h-15.9c-6 0-11-5-11-11v-31.1z" fill="#fff"/><path d="m162.8 337.6h11.4c5.1 0 9.1 4.1 9.1 9.1v3.8c0 5.1-4.1 9.1-9.1 9.1h-11.4z" fill="none" stroke="#fff" stroke-miterlimit="10" stroke-width="3.3"/><path d="m75.6 371.3h512.7c4.5 0 8.2 3.7 8.2 8.2s-3.7 8.2-8.2 8.2h-512.7c-4.5 0-8.2-3.7-8.2-8.2s3.7-8.2 8.2-8.2z" fill="#7000cd"/><path d="m204.3 387.9h289.8v100.5h-289.8z" fill="#7000cd"/><path d="m92.4 387.9h113.8v100.5h-113.8z" fill="#7000cd"/><path d="m206.2 387.9h287.9v100.5h-287.9z" fill="url(#e)"/><path d="m92.4 387.9h113.8v100.5h-113.8z" fill="url(#f)"/><path d="m595.5 38.3v64h-541v-64c0-7.3 5.8-13.1 13.1-13.1h514.9c7.1 0 13 5.8 13 13.1z" fill="#7000cd" opacity=".18"/><path d="m475.5 371.1h-187.5c-5.3 0-9.5-4.2-9.5-9.5s4.2-9.5 9.5-9.5h187.6c5.3 0 9.5 4.2 9.5 9.5-.1 5.2-4.3 9.5-9.6 9.5z" fill="#7000cd"/><path d="m475.5 371.1h-187.5c-5.3 0-9.5-4.2-9.5-9.5s4.2-9.5 9.5-9.5h187.6c5.3 0 9.5 4.2 9.5 9.5-.1 5.2-4.3 9.5-9.6 9.5z" fill="url(#g)"/><path d="m353 371.1h144l38-96.3c1.8-4.4-.4-9.2-4.8-11-1-.4-2-.6-3.1-.6h-113.1c-11.2 0-21.2 6.9-25.3 17.2z" fill="#7000cd"/><path d="m360.3 371.2h136.7l36.1-91.4c1.6-4.1-.4-8.8-4.5-10.4-.9-.4-1.9-.6-2.9-.6h-107.4c-10.7 0-20.2 6.4-24.1 16.4z" fill="#7000cd"/><path d="m360.3 371.2h136.7l36.1-91.4c1.6-4.1-.4-8.8-4.5-10.4-.9-.4-1.9-.6-2.9-.6h-107.4c-10.7 0-20.2 6.4-24.1 16.4z" fill="url(#h)"/><g fill="#fff"><path d="m312.7 233h202.5v11.4h-202.5z" opacity=".51"/><path d="m259.9 50h97.4v10.1h-97.4z"/><path d="m259.9 67.4h97.4v10.1h-97.4z"/><path d="m368.8 86.4h148.1v10.1h-148.1z"/><path d="m261.2 107.3h97.4v10.1h-97.4z"/><path d="m369.9 107.3h148.1v10.1h-148.1z"/><path d="m261.2 124.9h62.7v10.1h-62.7z"/><path d="m339 125.4h158.5v10.1h-158.5z" opacity=".51"/><path d="m315.4 141.4h97.4v10.1h-97.4z"/><path d="m424.1 141.4h148.1v10.1h-148.1z"/><path d="m315.4 159h62.7v10h-62.7z"/><path d="m393.1 159.4h158.5v10.1h-158.5z" opacity=".51"/><path d="m315.4 176.8h31.4v10.1h-31.4z" opacity=".51"/><path d="m358.2 176.8h214.1v10.1h-214.1z"/><path d="m315.4 194.7h97.4v10.1h-97.4z"/><path d="m431 194.7h141.4v10.1h-141.4z" opacity=".51"/><path d="m312.7 213.6h143.9v11.4h-143.9z"/><path d="m476.3 213.6h96.4v11.4h-96.4z"/></g></svg>