<svg enable-background="new 0 0 490 490" viewBox="0 0 490 490" xmlns="http://www.w3.org/2000/svg"><g stroke="#fff" stroke-miterlimit="10"><g stroke-width="3"><path d="m61 321h92c4.2 0 7.6 3.4 7.6 7.6s-3.4 7.6-7.6 7.6h-92c-4.2 0-7.6-3.4-7.6-7.6s3.4-7.6 7.6-7.6z"/><path d="m76.3 351.6h61.3c4.2 0 7.6 3.4 7.6 7.6s-3.4 7.6-7.6 7.6h-61.3c-4.2 0-7.6-3.4-7.6-7.6s3.4-7.6 7.6-7.6z"/><path d="m198.8 321h91.9c4.2 0 7.6 3.4 7.6 7.6s-3.4 7.6-7.6 7.6h-91.9c-4.2 0-7.6-3.4-7.6-7.6s3.4-7.6 7.6-7.6z"/><path d="m214.2 351.6h61.3c4.2 0 7.6 3.4 7.6 7.6s-3.4 7.6-7.6 7.6h-61.3c-4.2 0-7.6-3.4-7.6-7.6s3.4-7.6 7.6-7.6z"/><path d="m336.8 321h91.9c4.2 0 7.6 3.4 7.6 7.6s-3.4 7.6-7.6 7.6h-91.9c-4.2 0-7.6-3.4-7.6-7.6-.1-4.2 3.3-7.6 7.6-7.6z"/><path d="m352 351.6h61.3c4.2 0 7.6 3.4 7.6 7.6s-3.4 7.6-7.6 7.6h-61.3c-4.2 0-7.6-3.4-7.6-7.6s3.4-7.6 7.6-7.6z"/></g><circle cx="107" cy="259.8" r="15.3" stroke-width="4"/><circle cx="244.8" cy="259.8" r="15.3" stroke-width="4"/><circle cx="382.7" cy="259.8" r="15.3" stroke-width="4"/><g stroke-width="3"><path d="m107 229.1c29.6 0 53.6-24 53.6-53.6s-24-53.6-53.6-53.6-53.6 24-53.6 53.6c0 29.7 24 53.6 53.6 53.6zm0-91.8c21.1 0 38.3 17.2 38.3 38.3s-17.2 38.3-38.3 38.3-38.3-17.2-38.3-38.3c0-21.2 17.2-38.3 38.3-38.3z"/><path d="m245 229.1c29.6 0 53.6-24 53.6-53.6s-24-53.6-53.6-53.6-53.6 24-53.6 53.6c0 29.7 24 53.6 53.6 53.6zm0-91.8c21.1 0 38.3 17.2 38.3 38.3s-17.2 38.3-38.3 38.3-38.3-17.2-38.3-38.3c0-21.2 17.2-38.3 38.3-38.3z"/><path d="m383 229.1c29.6 0 53.6-24 53.6-53.6s-24-53.6-53.6-53.6-53.6 24-53.6 53.6c0 29.7 24 53.6 53.6 53.6zm0-91.8c21.1 0 38.3 17.2 38.3 38.3s-17.2 38.3-38.3 38.3-38.3-17.2-38.3-38.3c0-21.2 17.2-38.3 38.3-38.3z"/></g></g><path d="m454.8 45.9h-418.8c-19.9 0-36 16.1-36 36v326.1c0 19.9 16.1 36 36 36h418.8c19.9 0 36-16.1 36-36v-326.1c0-19.9-16.1-36-36-36zm22.8 360c0 12.5-10.1 22.6-22.6 22.6h-420.3c-12.5 0-22.6-10.1-22.6-22.6v-323.8c0-12.5 10.1-22.6 22.6-22.6h420.3c12.5 0 22.6 10.1 22.6 22.6z"/></svg>