<svg viewBox="0 0 594.4 489.2" xmlns="http://www.w3.org/2000/svg" xmlns:xlink="http://www.w3.org/1999/xlink"><linearGradient id="a" gradientTransform="matrix(1 0 0 -1 0 499.89)" gradientUnits="userSpaceOnUse" x1="253.55" x2="267.25" y1="72.69" y2="72.69"><stop offset="0" stop-color="#183866"/><stop offset="1" stop-color="#1a7fc1"/></linearGradient><linearGradient id="b" gradientTransform="matrix(1 0 0 -1 0 499.89)" gradientUnits="userSpaceOnUse" x1="286.7" x2="292.99" y1="70.92" y2="70.92"><stop offset="0"/><stop offset=".99" stop-opacity="0"/></linearGradient><linearGradient id="c" x1="300.74" x2="338.16" xlink:href="#b" y1="81.37" y2="98.08"/><linearGradient id="d" x1="300.14" x2="254.66" xlink:href="#b" y1="130" y2="114.75"/><linearGradient id="e" x1="325.35" x2="208.78" xlink:href="#b" y1="80.7" y2="41.6"/><linearGradient id="f" x1="329.34" x2="325.3" xlink:href="#b" y1="68.74" y2="67.38"/><linearGradient id="g" x1="284.72" x2="249.3" xlink:href="#b" y1="80.4" y2="90.02"/><linearGradient id="h" x1="572.92" x2="-60.95" xlink:href="#b" y1="125.63" y2="95.15"/><linearGradient id="i" x1="218.82" x2="541.78" xlink:href="#a" y1="224.24" y2="224.24"/><linearGradient id="j" gradientTransform="translate(0 -340)" x1="376.57" x2="410.65" xlink:href="#b" y1="565.23" y2="701.85"/><linearGradient id="k" gradientTransform="translate(0 -340)" x1="320.64" x2="435.16" xlink:href="#b" y1="586.91" y2="625.29"/><linearGradient id="l" gradientTransform="translate(0 -340)" x1="320.31" x2="317.31" xlink:href="#b" y1="615.56" y2="637.33"/><linearGradient id="m" x1="112.25" x2="56.96" xlink:href="#b" y1="23.06" y2="20.95"/><linearGradient id="n" x1="120.65" x2="74.84" xlink:href="#b" y1="48.46" y2="46.89"/><linearGradient id="o" gradientTransform="matrix(1 0 0 -1 -2.93 494)" x1="76.81" x2="53.64" xlink:href="#b" y1="87.44" y2="-24.18"/><linearGradient id="p" x1="66.4" x2="19.8" xlink:href="#b" y1="61.45" y2="273.99"/><linearGradient id="q" x1="68.95" x2="63.5" xlink:href="#b" y1="57.1" y2="81.96"/><linearGradient id="r" x1="66.58" x2="126.95" xlink:href="#b" y1="439.65" y2="232.99"/><linearGradient id="s" gradientTransform="matrix(1 0 0 -1 0 499.89)" gradientUnits="userSpaceOnUse" x1="277.79" x2="327.44" y1="396.65" y2="396.65"><stop offset="0" stop-color="#ecc4d7"/><stop offset=".42" stop-color="#efd4d1"/><stop offset="1" stop-color="#f2eac9"/></linearGradient><linearGradient id="t" x1="287.89" x2="334.1" xlink:href="#s" y1="224.3" y2="224.3"/><linearGradient id="u" x1="355.54" x2="392.35" xlink:href="#s" y1="239.14" y2="239.14"/><linearGradient id="v" x1="600.62" x2="396.36" xlink:href="#b" y1="277.44" y2="412.66"/><linearGradient id="w" x1="565.64" x2="423.65" xlink:href="#b" y1="204.58" y2="336.98"/><linearGradient id="x" x1="327.09" x2="325.72" xlink:href="#b" y1="66.96" y2="66.5"/><path d="m442.8 90.9c-18.1-20.6-32.2-45.3-53.9-62.1-34-26.5-83.1-29.1-122.9-12.5s-70.8 50.2-91.3 88.2c-10.8 20-19.2 41.8-35 58.1-13.3 13.8-30.8 22.6-47.4 32.2-26.8 15.4-52.5 34.1-69.9 59.6s-25.1 59.2-14 88c7.5 19.4 22.5 34.9 37.9 48.9 18.1 16.5 37.6 31.9 60.1 41.7 28.2 12.2 59.4 14.8 90.1 16.1a1150.9 1150.9 0 0 0 162.9-4.9c44.3-4.5 90-12.1 127-36.8 51.9-34.6 78.7-97.9 84.7-159.9 2.5-24.8 1.8-50.6-7.8-73.7-22.8-54.9-84.6-42.1-120.5-82.9z" fill="#8e04f2" opacity=".18" transform="translate(-2.9 -5.9)"/><path d="m222.9 201.5s-20.6-3.6-26.3 10.6 0 63.4 0 63.4l76.7 54.3z" fill="#3f3d56" transform="translate(-2.9 -5.9)"/><path d="m319.5 420.6-29.7 8.8a8.1 8.1 0 1 1 -4.6-15.6l29.7-8.8a8.1 8.1 0 0 1 10.1 5.5 8.2 8.2 0 0 1 -5.5 10.1z" fill="#8e04f2" transform="translate(-2.9 -5.9)"/><circle cx="314.9" cy="433.6" fill="#25233a" r="13.7"/><circle cx="312.4" cy="434.8" fill="#3f3d56" r="6.9"/><circle cx="260" cy="420" fill="#25233a" r="13.7"/><path d="m267.3 427.2a6.9 6.9 0 1 1 -6.9-6.9 6.9 6.9 0 0 1 6.9 6.9z" fill="url(#a)" transform="translate(-2.9 -5.9)"/><circle cx="256" cy="438.8" fill="#25233a" r="13.7"/><g transform="translate(-2.9 -5.9)"><path d="m269.7 445.1a6.9 6.9 0 1 1 -6.9-6.9 6.9 6.9 0 0 1 6.9 6.9z" fill="#3f3d56"/><g fill="#8e04f2"><path d="m320.6 434.1-62.7-12.7a8.2 8.2 0 0 1 3.2-16l62.7 12.6a8.2 8.2 0 0 1 -3.2 16.1z"/><path d="m281.9 335.6h17.1v72.1a8.6 8.6 0 0 1 -17.2 0z"/><path d="m288.1 429.4-29.7 8.8a8.1 8.1 0 1 1 -4.6-15.6l29.7-8.8a8.1 8.1 0 0 1 10.1 5.5 8.3 8.3 0 0 1 -5.5 10.1z"/></g><path d="m293 428.5-3.3 1a7.7 7.7 0 0 1 -3 .3l1.4-.4a7.9 7.9 0 0 0 2.6-1.3z" fill="url(#b)"/><path d="m325.3 412.8a8.8 8.8 0 0 1 -1.8 5.2l-26-5.3a8.3 8.3 0 0 0 1.4-3l16-4.7a8.1 8.1 0 0 1 10.1 5.6 8.3 8.3 0 0 1 .3 2.2z" fill="url(#c)"/><path d="m282.1 409.6a12.3 12.3 0 0 1 -.2-1.9v-72.1h5.9v77.7a2 2 0 0 0 .1 1.1 7.1 7.1 0 0 0 -2.8-.6h-1.7c.3-.1-.9-2.6-1.3-4.1z" fill="url(#d)" opacity=".31"/><path d="m326.1 433.2a7.6 7.6 0 0 1 -3.9 1l-1.6-.2-27.6-5.6-2.3-.5a7.1 7.1 0 0 1 -2.6 1.3l-1.4.4-28.3 8.4a8.1 8.1 0 0 1 -10.1-5.5 7 7 0 0 0 8.9.5c3.5-2.4 17.2-6 25-7.9a9.7 9.7 0 0 0 7.2-7.6c0-.2.1-.4.1-.7 1.3 1.4 3.7 3 8 4.3 10.6 3.3 27.9 5.4 27.9 5.4s3 3.4.7 6.7z" fill="url(#e)" opacity=".31"/><path d="m329 430.5a8.3 8.3 0 0 1 -2 2.2z" fill="url(#f)"/><path d="m282.1 409.6a7.5 7.5 0 0 0 2.1 3.9l-.8.2-25.8 7.6a8.2 8.2 0 0 1 1.8-16.1l1.6.2z" fill="url(#g)"/><path d="m321.9 62.4s-.3-25.4-20.7-23.2-18.8-6.2-27.5-5.3-18.8 9.5-15.9 20.1-7.7 13-14.6 21 1.6 14.6 13.3 22.5-.7 5.8 6.2 18.3 30.4-3.5 30.4-3.5z" fill="#3f3d56"/><path d="m155.7 487.7 14.5.5v-115.4s.7-29.8 28.9-32.8 283.6-40 283.6-40 10.1-1.1 16 18.3 11.5 95.8 11.5 95.8l78.4 10.6s2.1-134.9-26.2-142.3-398.6 30.5-398.6 30.5-27.6 143.1-8.1 174.8z" fill="#8e04f2"/><path d="m155.7 487.7 14.5.5v-115.4s.7-29.8 28.9-32.8 283.6-40 283.6-40 10.1-1.1 16 18.3 11.5 95.8 11.5 95.8l78.4 10.6s2.1-134.9-26.2-142.3-398.6 30.5-398.6 30.5-27.6 143.1-8.1 174.8z" fill="url(#h)"/><path d="m79.4 327s7.1-39.2 56.9-49.5l351.7-40.3s34.5-1.4 50.3 8.1 38.3 17.5 47.6 60.7 11.4 117.2 11.4 117.2l-8.7 1.4s-12.8-133.8-26.3-142.3-379 43.5-379 43.5-25.4 5-27.6 42.6 0 119.2 0 119.2l-76.3-30.8z" fill="#8e04f2"/><path d="m441.2 252.3c-18.2-2.4-36.5-4.1-54.9-3.4-13.8.5-27.5 2.5-41.1 4.4l-120.5 16.9c-2 .3-4.4.8-5.4 2.6-2 3.4 2.6 6.8 6.4 8.1 40.1 14.1 82.9 28.3 124.1 18.3 18.9-4.6 36.4-14.1 55.5-17.4s38.8-.3 57.9-3.4 35-11.2 53.2-11.3c5.6 0 11.3.7 16.6-1s10-7.2 8.5-12.5c-17.1-.6-36.2-3.8-53-.3s-30.7-1-47.3-1z" fill="url(#i)" opacity=".19"/><path d="m332.2 272.8.7 2.7s20.8 12.9 20.7 13.4 86.4-20.7 86.4-20.7l2-6.1z" fill="#8e04f2"/><path d="m332.2 272.8.7 2.7s20.8 12.9 20.7 13.4 86.4-20.7 86.4-20.7l2-6.1z" fill="url(#j)"/><path d="m334.2 272.8 76-17.1 31.8 6.5-86.5 21.7z" fill="#8e04f2"/><path d="m334.2 272.8 76-17.1 31.8 6.5-86.5 21.7z" fill="url(#k)"/><path d="m310.2 286.4 18.1.6s4.6.3 5.8-3.2-7.4-10.8-8.3-11-24.7 6.2-21.3 12.5z" fill="#8e04f2"/><path d="m310.2 286.4 18.1.6s4.6.3 5.8-3.2-7.4-10.8-8.3-11-24.7 6.2-21.3 12.5z" fill="url(#l)"/><path d="m101.4 464.4-8.8 26.6a70.6 70.6 0 0 1 -47.2 0l-6.3-28c0 .1 31.8 10.6 62.3 1.4z" fill="#8e04f2"/><path d="m101.4 464.4-8.8 26.6a70.6 70.6 0 0 1 -47.2 0l-6.3-28c0 .1 31.8 10.6 62.3 1.4z" fill="url(#m)"/><path d="m111.3 439.5-2.8 21.1-7.1 3.7c-30.4 9.2-62.3-1.3-62.3-1.3l-5.5-4.1-2.6-19.5h80.3z" fill="#8e04f2"/><path d="m111.3 439.5-2.8 21.1-7.1 3.7c-30.4 9.2-62.3-1.3-62.3-1.3l-5.5-4.1-2.6-19.5h80.3z" fill="url(#n)"/></g><ellipse cx="68.3" cy="433.6" fill="#8e04f2" rx="40.1" ry="7.2"/><ellipse cx="68.3" cy="433.6" fill="url(#o)" rx="40.1" ry="7.2"/><g transform="translate(-2.9 -5.9)"><path d="m52.1 278.4c-3.9-1.9-8.2-3.3-11.6-6-6.9-5.5-8.6-15.1-10.8-23.6s-6.3-18-14.8-20.4c-3.2-.9-6.9-.5-9.3 1.7s-3.1 6.3-2.4 9.7 2.4 6.5 3.7 9.8a44.7 44.7 0 0 1 2.7 24c-1.1 6.6-3.6 13.4-2 19.9 2.8 11 16.7 17.5 17.1 28.9.3 7.7-6.1 14.8-4.6 22.3 1.1 5.6 6.2 9.9 6.5 15.6s-5.8 11.9-5.5 18.3 6.7 10.7 10.9 15.8a26.8 26.8 0 0 1 6 15c.2 3.4-.2 7 .9 10.2s2.5 4.4 3.7 6.5 2.5 4.8 4.1 7a16.9 16.9 0 0 0 18.2 5.7c1.3-8.6.2-17.3.5-25.9.7-16.7 7-33.6 3-49.9-1.5-6-4.4-11.6-4.9-17.7s1-10.9 2-16.3c2.1-11.1 2.1-22.6 1.2-33.9-.5-8.9-6.8-13-14.6-16.7z" fill="#8e04f2"/><path d="m77.2 322.2c-.1 7.5 1.6 15.2-.8 22.3-1.8 5.4-5.8 9.8-7.8 15.1-4.7 12.2 1.6 25.9.3 38.9-.5 5.4-2.4 10.5-3.5 15.8a62.9 62.9 0 0 0 -1 20.3 5 5 0 0 0 4.1 5.3 66.7 66.7 0 0 0 12.4 3.3 33.4 33.4 0 0 1 4.2-22.9c6.5-10.6 19.1-17.8 21.4-30 1.6-8.3-2.1-16.7-1.8-25.1a27.3 27.3 0 0 1 5.5-15.5c3.1-4 7.2-7 10-11.2 6.8-9.9 4.7-23.2 2.7-35.1s-3.2-25.6 4.8-34.6c2.5-2.8 5.8-5 8.1-8 5.1-6.8 3.8-17.2-2.1-23.3s-15.5-7.7-23.6-5.1a17.2 17.2 0 0 0 -8.6 5.9c-4.1 5.8-2.5 13.7-.7 20.6s2.7 12.9.7 19c-1.5 4.5-5.5 6.9-8.8 10.1a47.9 47.9 0 0 0 -15.5 34.2z" fill="#8e04f2"/><path d="m68.7 388.4c-1.2 8.1-2.8 16.3-3.2 24.4v.8c0 .2-.1.4-.1.6a63 63 0 0 0 -1.1 20.3 7.2 7.2 0 0 0 .8 3.2c0 .3-.1.7-.1 1a17 17 0 0 1 -18.2-5.7 67.7 67.7 0 0 1 -4.1-7c-1.3-2.2-2.9-4.2-3.7-6.5s-.7-6.8-.9-10.2a26.5 26.5 0 0 0 -6-15c-4.2-5-10.6-9.2-10.9-15.8s5.8-11.9 5.5-18.3-5.4-10-6.5-15.6c-1.4-7.5 4.9-14.6 4.6-22.3-.4-11.4-14.3-17.8-17.1-28.9-1.6-6.5.9-13.2 2-19.9a44.3 44.3 0 0 0 -2.7-23.9c-1.3-3.3-3-6.4-3.7-9.8s-.2-7.4 2.4-9.7 6.1-2.6 9.3-1.7c8.5 2.5 12.6 11.9 14.8 20.4s3.9 18.1 10.8 23.6c3.4 2.7 7.6 4.1 11.6 6 7.9 3.7 14.1 7.8 14.8 16.7.8 11.3.9 22.8-1.2 33.9-1 5.4-2.5 10.8-2 16.3s2.8 10.6 4.4 15.9c.2.6.3 1.2.5 1.8 1.9 8.3 1.2 16.8 0 25.4z" fill="url(#p)"/><path d="m65.2 437.7a8.5 8.5 0 0 1 -.9-3.1 63 63 0 0 1 1.1-20.3c0-.2.1-.4.1-.6-.2 8 .7 16.1-.3 24z" fill="url(#q)"/><path d="m135.7 260.9c-2.3 3-5.6 5.2-8.1 8-8 9-6.8 22.7-4.8 34.6s4.2 25.2-2.7 35.1c-2.8 4.1-7 7.2-10 11.2a27.3 27.3 0 0 0 -5.5 15.5c-.3 8.4 3.4 16.8 1.8 25.1-2.3 12.2-15 19.4-21.4 30a33.4 33.4 0 0 0 -4.2 22.9 66.7 66.7 0 0 1 -12.4-3.3 6.6 6.6 0 0 1 -2.9-1.7l-.3-.4a8.5 8.5 0 0 1 -.9-3.1 63 63 0 0 1 1.1-20.3c0-.2.1-.4.1-.6 1.2-5.1 2.9-10 3.4-15.2a48.7 48.7 0 0 0 -.2-10.1c1.2-8.6 1.9-17.1-.2-25.5a12.1 12.1 0 0 0 -.5-1.8c.2-.5.3-1 .5-1.6 2.1-5.3 6-9.7 7.8-15.1 2.4-7.1.7-14.8.8-22.3a47.9 47.9 0 0 1 15.3-34.2c3.3-3.1 7.2-5.6 8.8-10.1s.8-13-.7-19-3.4-14.8.7-20.6a16.7 16.7 0 0 1 8.6-5.9c8.1-2.7 17.7-1 23.6 5.1s7.4 16.6 2.3 23.3z" fill="url(#r)"/><path d="m280.6 132.6s-34.4 5.3-50.3 42.8-7.6 84-7.4 88.1 48.8 21.8 62.6 21.8 16.7-13.7 16.7-13.7l-24.5-10.3 74.4-8.5h13.4l-7.4 12.3s14.5 1.5 24.2 1.8 16.3-18.6 17.4-28.1-42.9-92.3-49.4-97.2-24.3-16.9-69.7-9z" fill="#8e04f2"/><path d="m321.9 62.4s6.1 3.5 5.5 14.7-4 28.2-7.5 32.6-15.6 6.1-15.6 6.1 6.6 15.9 11.5 20.1-4.9 19.3-14.5 14.3-20.7-17.5-20.7-17.5 8-15 5.3-23-13-35.7-5.3-43.3 24.5-18.5 41.3-4z" fill="url(#s)"/><path d="m266.7 186.6-5.4 66.2 16.5 8.5 13.4-2.3-16.7-20.2z" fill="#fff" opacity=".25"/><path d="m353.6 183.3s21.6 51.3 12 69.5l-7.4-1.4z" fill="#fff" opacity=".25"/><path d="m293.4 269.2s-8.2 7.4-4.6 13.1 8.1 5.6 11.7 3 10.8-8.6 19.4-5.8 10.6 4.6 10.6 4.6 4.5-3 3.3-5.9-10.1-12.6-12.7-13.8-13.4 2.6-13.4 2.6-7.8-2.4-14.3 2.2z" fill="url(#t)"/><path d="m368 255.4s-7.8.9-9.8 5.9-2.7 5.6-2.7 5.6 4.4.8 6.3-1.5 3.8-1.3 3.8-1.3l-.5 3s12 1.8 17.5-.1 7.8-4.1 7.8-4.1l2.1-5s-5.1-3.6-9-4.1-15.5 1.6-15.5 1.6z" fill="url(#u)"/><path d="m407.8 310.7s26.7 20.3 24.3 47.8-5.9 68.3-5.9 68.3-10.8 4.5-17.9 0-11.4-66.5-15-72.5-24.8-32.6-47.5-34.9z" fill="#25233a"/><path d="m273.2 329.9s12.9 12.3 35.8 16.1 33.6 7.1 40.6 26.8 13.7 62.2 15.9 66.9 11.6 2.3 11.6 2.3 5.3-6.1 5.3-39.8c0-47 3.3-56.7-8.5-68.5s-22.5-15-22.5-15z" fill="#3f3d56"/><path d="m365.6 439.7 2.2 17.2h4.1s26.3 1.4 27.2.8-1.3-13.6-11.2-13.3-10.6-2.5-10.6-2.5z" fill="#25233a"/><path d="m411.6 428.2 4.3 16.9 46.5-6.4s1.6-11.1-13.1-10c-3.9.3-6.8 3-11.4 3s-9.1-1.9-11.5-5z" fill="#25233a"/><path d="m573.6 215-175.9 9.4a7.7 7.7 0 0 1 -8.1-7.3v-125a9.3 9.3 0 0 1 9.1-9.3l175.2-3.6a8.4 8.4 0 0 1 8.6 8.3v118.1a9.4 9.4 0 0 1 -8.9 9.4z" fill="#8e04f2"/><path d="m581.7 215-175.9 9.4a7.7 7.7 0 0 1 -8.1-7.3v-125a9.3 9.3 0 0 1 9.1-9.3l175.2-3.6a8.4 8.4 0 0 1 8.6 8.3v118.1a9.4 9.4 0 0 1 -8.9 9.4z" fill="#8e04f2"/><path d="m581.7 215-175.9 9.4a7.7 7.7 0 0 1 -8.1-7.3v-125a9.3 9.3 0 0 1 9.1-9.3l175.2-3.6a8.4 8.4 0 0 1 8.6 8.3v118.1a9.4 9.4 0 0 1 -8.9 9.4z" fill="url(#v)"/><path d="m530.5 262.1-44.7 4.8s-13.6-2.7-12.9-4.8 15-4 15-4v-81.1c-.1-.2-2-2.6-7.1-4.1l-3-.7a7.3 7.3 0 0 1 -2.5-.8c-3.1-1.6.3-4.3 5.1-4.4h36.5s13 3.7 13.6 22 0 73.1 0 73.1z" fill="#8e04f2"/><path d="m494.2 262.3-8.3 4.6s-13.6-2.7-12.9-4.8 15-4 15-4v-81.1a20.1 20.1 0 0 0 -7.1-4.1 51.2 51.2 0 0 0 -5.6-1.5c-3.1-1.6.3-4.3 5.1-4.4s12 5 12.5 7.5 1.3 87.8 1.3 87.8z" fill="#8e04f2"/><path d="m494.2 262.3-8.3 4.6s-13.6-2.7-12.9-4.8 15-4 15-4v-81.1a20.1 20.1 0 0 0 -7.1-4.1 51.2 51.2 0 0 0 -5.6-1.5c-3.1-1.6.3-4.3 5.1-4.4s12 5 12.5 7.5 1.3 87.8 1.3 87.8z" fill="url(#w)"/><path d="m327 432.6c-1 1.1-1.5 1.5-.9.6z" fill="url(#x)"/></g></svg>