<?xml version="1.0" encoding="utf-8"?>
<!-- Generator: Adobe Illustrator 24.0.3, SVG Export Plug-In . SVG Version: 6.00 Build 0)  -->
<svg version="1.1" id="Calque_1" xmlns="http://www.w3.org/2000/svg" xmlns:xlink="http://www.w3.org/1999/xlink" x="0px" y="0px"
	 viewBox="0 0 9.4 9.8" style="enable-background:new 0 0 9.4 9.8;" xml:space="preserve">
<path d="M9,9.2H8.6v-6c0-0.3-0.2-0.5-0.5-0.5H7.2C6.9,2.8,6.7,3,6.7,3.3v6h-1V6c0-0.3-0.2-0.5-0.5-0.5H4.2C3.9,5.5,3.7,5.7,3.7,6
	v3.3h-1V7.5C2.6,7.3,2.4,7,2.1,7H1.2C0.9,7,0.7,7.3,0.7,7.5v1.7H0.3c-0.1,0-0.2,0.1-0.2,0.2c0,0.1,0.1,0.2,0.2,0.2H9
	c0.1,0,0.2-0.1,0.2-0.2C9.2,9.3,9.1,9.2,9,9.2L9,9.2z M2.3,9.2H1.1V7.5c0-0.1,0.1-0.1,0.1-0.1h0.9c0.1,0,0.1,0.1,0.1,0.1L2.3,9.2z
	 M5.2,9.2H4.1V6c0-0.1,0.1-0.1,0.1-0.1h0.9c0.1,0,0.1,0.1,0.1,0.1L5.2,9.2L5.2,9.2z M8.2,9.2H7v-6c0-0.1,0.1-0.1,0.1-0.1h0.9
	c0.1,0,0.1,0.1,0.1,0.1L8.2,9.2z"/>
<path d="M8.6,0.2c0-0.1,0-0.1-0.1-0.2C8.5,0,8.5,0,8.4,0c0,0,0,0,0,0H7.3C7.2,0,7.1,0.1,7.1,0.2s0.1,0.2,0.2,0.2H8L6.1,2.2L5.4,1.5
	c0,0-0.1-0.1-0.1-0.1s-0.1,0-0.1,0.1L1.8,4.9C1.7,5,1.7,5.1,1.8,5.2c0,0,0.1,0.1,0.1,0.1S2,5.2,2,5.2l3.2-3.2L6,2.6
	c0.1,0.1,0.2,0.1,0.3,0l2-2v0.6c0,0.1,0.1,0.2,0.2,0.2c0.1,0,0.2-0.1,0.2-0.2V0.2C8.6,0.2,8.6,0.2,8.6,0.2L8.6,0.2z"/>
<circle cx="1.3" cy="5.7" r="0.2"/>
</svg>
