<?xml version="1.0" encoding="utf-8"?>
<!-- Generator: Adobe Illustrator 24.0.3, SVG Export Plug-In . SVG Version: 6.00 Build 0)  -->
<svg version="1.1" id="Calque_1" xmlns="http://www.w3.org/2000/svg" xmlns:xlink="http://www.w3.org/1999/xlink" x="0px" y="0px"
	 viewBox="0 0 8 6.6" style="enable-background:new 0 0 8 6.6;" xml:space="preserve">
<path d="M0,1.3v4.8c0,0.3,0.3,0.6,0.6,0.6h6.2c0.3,0,0.6-0.3,0.6-0.6V1.3c0-0.3-0.3-0.6-0.6-0.6H0.6C0.3,0.7,0,0.9,0,1.3L0,1.3z
	 M6.8,6.3H0.6c-0.1,0-0.2-0.1-0.2-0.2V2.5H7v3.6C7,6.2,6.9,6.3,6.8,6.3L6.8,6.3z M7,1.3v0.8H0.4V1.3c0-0.1,0.1-0.2,0.2-0.2h6.2
	C6.9,1.1,7,1.2,7,1.3z"/>
<path d="M0.9,1.8c0,0,0.1,0,0.1,0c0,0,0.1-0.1,0.1-0.1s0-0.1,0-0.1c-0.1-0.1-0.2-0.1-0.3,0c0,0-0.1,0.1-0.1,0.1s0,0.1,0,0.1
	C0.8,1.7,0.8,1.8,0.9,1.8z"/>
<path d="M1.6,1.8c0,0,0.1,0,0.1,0c0,0,0-0.1,0-0.1c0,0,0-0.1,0-0.1c-0.1-0.1-0.2-0.1-0.3,0c0,0,0,0.1,0,0.1s0,0.1,0,0.1
	C1.5,1.7,1.5,1.8,1.6,1.8z"/>
<path d="M2.3,1.8c0,0,0.1,0,0.1,0c0,0,0-0.1,0-0.1c0,0,0-0.1,0-0.1c-0.1-0.1-0.2-0.1-0.3,0c0,0,0,0.1,0,0.1s0,0.1,0,0.1
	C2.2,1.7,2.2,1.8,2.3,1.8z"/>
<path d="M4.9,3.3c-0.1-0.1-0.2-0.1-0.3,0c-0.1,0.1-0.1,0.2,0,0.3l0.9,0.8L4.7,5.2c-0.1,0.1-0.1,0.2,0,0.3c0,0,0.1,0.1,0.1,0.1
	c0,0,0.1,0,0.1,0L6,4.5c0,0,0.1-0.1,0.1-0.1c0,0,0-0.1-0.1-0.1L4.9,3.3z"/>
<path d="M1.8,4.4l0.9-0.8c0.1-0.1,0.1-0.2,0-0.3c-0.1-0.1-0.2-0.1-0.3,0L1.4,4.2c0,0-0.1,0.1-0.1,0.1s0,0.1,0.1,0.1l1.1,0.9
	c0,0,0.1,0,0.1,0s0.1,0,0.1-0.1c0.1-0.1,0.1-0.2,0-0.3L1.8,4.4z"/>
<path d="M4.2,3.1C4.1,3,4,3.1,4,3.2L3,5.5c0,0.1,0,0.2,0.1,0.2c0,0,0,0,0.1,0c0.1,0,0.1,0,0.2-0.1l0.9-2.3C4.3,3.2,4.3,3.1,4.2,3.1
	L4.2,3.1z"/>
</svg>
