<?xml version="1.0" encoding="utf-8"?>
<!-- Generator: Adobe Illustrator 24.0.3, SVG Export Plug-In . SVG Version: 6.00 Build 0)  -->
<svg version="1.1" id="Calque_1" xmlns="http://www.w3.org/2000/svg" xmlns:xlink="http://www.w3.org/1999/xlink" x="0px" y="0px"
	 viewBox="0 0 6 6" style="enable-background:new 0 0 6 6;" xml:space="preserve">
<path d="M2.8,4.3C2.8,4.3,2.7,4.3,2.8,4.3C2.7,4.4,2.7,4.4,2.7,4.4c0,0,0,0.1,0,0.1c0,0,0.1,0,0.1,0c0,0,0.1,0,0.1,0
	c0,0,0-0.1,0-0.1S2.9,4.4,2.8,4.3C2.8,4.3,2.8,4.3,2.8,4.3z"/>
<path d="M5,4C5,4,4.9,4,5,4C4.9,4,4.9,4.1,4.9,4.1c0,0,0,0.1,0,0.1c0,0,0.1,0,0.1,0s0.1,0,0.1,0c0,0,0-0.1,0-0.1C5.1,4,5.1,4,5,4
	C5,4,5,4,5,4z"/>
<path d="M1.6,3.4C1.6,3.4,1.5,3.4,1.6,3.4C1.5,3.5,1.5,3.5,1.5,3.5c0,0,0,0.1,0,0.1c0,0,0.1,0,0.1,0c0,0,0.1,0,0.1,0s0-0.1,0-0.1
	C1.7,3.5,1.7,3.5,1.6,3.4C1.6,3.4,1.6,3.4,1.6,3.4z"/>
<path d="M5.9,1.3c0-0.1-0.1-0.1-0.1-0.1H5.6c0-0.1-0.1-0.2-0.1-0.2l0.1-0.1c0.1-0.1,0.1-0.1,0-0.2L5.3,0.4c-0.1-0.1-0.1-0.1-0.2,0
	L5,0.5C4.9,0.4,4.9,0.4,4.8,0.4V0.2c0-0.1-0.1-0.1-0.1-0.1H4.2C4.1,0.1,4,0.1,4,0.2v0.2C4,0.4,3.9,0.4,3.8,0.5L3.7,0.4
	c-0.1-0.1-0.1-0.1-0.2,0L3.2,0.7c0,0,0,0.1,0,0.1H0.5C0.2,0.8,0,1,0,1.3v3.2c0,0.3,0.2,0.5,0.5,0.5h1.8v0.4H2
	c-0.2,0-0.4,0.2-0.4,0.4v0.2C1.6,5.9,1.7,6,1.7,6h2.1C3.9,6,4,5.9,4,5.9V5.7c0-0.2-0.2-0.4-0.4-0.4H3.3V4.9h1.8
	c0.3,0,0.5-0.2,0.5-0.5V2.6l0.1-0.1c0,0,0-0.1,0-0.1s0-0.1,0-0.1L5.5,2.2C5.6,2.1,5.6,2,5.6,2h0.2c0,0,0.1,0,0.1,0c0,0,0-0.1,0-0.1
	L5.9,1.3z M3.7,5.7L3.7,5.7L1.8,5.8V5.7c0-0.1,0.1-0.2,0.2-0.2h1.5C3.6,5.5,3.7,5.6,3.7,5.7z M3,5.3H2.5V4.9H3V5.3z M5.3,4.5
	c0,0.1-0.1,0.2-0.2,0.2H0.5c-0.1,0-0.2-0.1-0.2-0.2V4.2h4.3c0.1,0,0.1-0.1,0.1-0.1C4.6,4,4.6,4,4.5,4H0.2V3.6h0.9
	c0.1,0,0.1-0.1,0.1-0.1S1.2,3.4,1.1,3.4H0.2V1.3C0.2,1.1,0.3,1,0.5,1h2.8c0,0.1-0.1,0.1-0.1,0.2H3c0,0-0.1,0-0.1,0c0,0,0,0,0,0.1
	v0.5C2.9,1.9,3,1.9,3,1.9h0.2c0,0.1,0.1,0.2,0.1,0.2L3.2,2.3c-0.1,0.1-0.1,0.1,0,0.2l0.3,0.3c0.1,0.1,0.1,0.1,0.2,0l0.1-0.1
	c0.1,0,0.2,0.1,0.2,0.1V3c0,0.1,0.1,0.1,0.1,0.1h0.5C4.7,3.1,4.8,3,4.8,3V2.8c0.1,0,0.2-0.1,0.2-0.1l0.1,0.1c0,0,0.1,0,0.1,0
	c0,0,0.1,0,0.1,0l0,0C5.3,2.8,5.3,4.5,5.3,4.5z M5.7,1.7H5.5c-0.1,0-0.1,0-0.1,0.1c0,0.1-0.1,0.2-0.1,0.3c0,0.1,0,0.1,0,0.1l0.1,0.1
	L5.2,2.6L5.1,2.5c0,0-0.1-0.1-0.1,0h0C4.9,2.5,4.8,2.6,4.6,2.6c-0.1,0-0.1,0.1-0.1,0.1v0.2H4.3V2.7c0-0.1,0-0.1-0.1-0.1
	C4.1,2.6,4,2.5,3.9,2.5c0,0,0,0-0.1,0c0,0-0.1,0-0.1,0L3.6,2.6L3.4,2.4l0.1-0.1c0,0,0.1-0.1,0-0.1C3.5,2,3.4,1.9,3.4,1.8
	c0-0.1-0.1-0.1-0.1-0.1H3.1V1.5h0.2c0.1,0,0.1,0,0.1-0.1c0-0.1,0.1-0.2,0.1-0.3c0-0.1,0-0.1,0-0.1L3.4,0.8l0.2-0.2l0.1,0.1
	c0,0,0.1,0.1,0.1,0C4,0.7,4.1,0.6,4.2,0.6c0.1,0,0.1-0.1,0.1-0.1V0.3h0.3v0.2c0,0.1,0,0.1,0.1,0.1c0.1,0,0.2,0.1,0.3,0.1h0
	c0.1,0,0.1,0,0.1,0l0.1-0.1l0.2,0.2L5.3,0.9l0,0c0,0,0,0.1,0,0.1c0.1,0.1,0.1,0.2,0.1,0.3c0,0.1,0.1,0.1,0.1,0.1h0.2L5.7,1.7
	L5.7,1.7z"/>
<path d="M4.4,0.9C4,0.9,3.7,1.2,3.7,1.6S4,2.3,4.4,2.3S5.1,2,5.1,1.6S4.8,0.9,4.4,0.9z M4.4,2.1c-0.3,0-0.5-0.2-0.5-0.5
	s0.2-0.5,0.5-0.5c0.3,0,0.5,0.2,0.5,0.5S4.7,2.1,4.4,2.1z"/>
<path d="M1.9,2.3C1.9,2.3,1.8,2.3,1.9,2.3C1.8,2.3,1.8,2.3,1.8,2.4s0,0.1,0,0.1c0,0,0.1,0,0.1,0c0,0,0.1,0,0.1,0s0-0.1,0-0.1
	S2,2.3,1.9,2.3C2,2.3,1.9,2.3,1.9,2.3z"/>
<path d="M2.8,2.2C2.8,2.1,2.8,2.1,2.8,2.2L2.6,1.7c0-0.1-0.1-0.1-0.2,0L2.3,1.8c0,0-0.1-0.1-0.1-0.1V1.6c0-0.1-0.1-0.1-0.1-0.1H1.7
	c-0.1,0-0.1,0.1-0.1,0.1v0.1c0,0-0.1,0-0.1,0.1L1.4,1.7c0,0-0.1,0-0.1,0c0,0-0.1,0-0.1,0.1L1,2.1c0,0.1,0,0.1,0,0.2l0.1,0.1
	c0,0,0,0.1,0,0.1c0,0,0,0.1,0,0.1L1,2.5C1,2.5,1,2.6,1,2.6L1.2,3c0,0,0,0.1,0.1,0.1c0,0,0.1,0,0.1,0L1.5,3C1.5,3,1.6,3,1.6,3v0.1
	c0,0.1,0.1,0.1,0.1,0.1h0.4c0.1,0,0.1-0.1,0.1-0.1V3c0,0,0.1,0,0.1-0.1L2.4,3c0.1,0,0.1,0,0.2,0l0.2-0.3c0,0,0-0.1,0-0.1
	c0,0,0-0.1-0.1-0.1L2.6,2.4c0,0,0-0.1,0-0.1c0,0,0-0.1,0-0.1L2.8,2.2C2.8,2.2,2.8,2.2,2.8,2.2L2.8,2.2z M2.4,2.3c0,0,0,0.1,0,0.1
	s0,0.1,0,0.1c0,0.1,0,0.1,0.1,0.1l0.1,0.1L2.4,2.8L2.4,2.7c0,0-0.1,0-0.1,0C2.2,2.8,2.1,2.8,2,2.9C2,2.9,2,2.9,2,3v0.1H1.8V3
	c0-0.1,0-0.1-0.1-0.1c-0.1,0-0.1-0.1-0.2-0.1c0,0-0.1,0-0.1,0L1.3,2.8L1.3,2.6l0.1-0.1c0,0,0.1-0.1,0.1-0.1c0,0,0-0.1,0-0.1
	c0,0,0-0.1,0-0.1c0-0.1,0-0.1-0.1-0.1L1.3,2.1l0.1-0.1L1.4,2c0,0,0.1,0,0.1,0c0.1-0.1,0.1-0.1,0.2-0.1c0.1,0,0.1-0.1,0.1-0.1V1.7H2
	v0.1C2,1.8,2,1.8,2,1.9c0.1,0,0.1,0.1,0.2,0.1c0,0,0.1,0,0.1,0l0.1-0.1l0.1,0.1L2.4,2.1C2.4,2.2,2.4,2.2,2.4,2.3L2.4,2.3z"/>
</svg>
