<?xml version="1.0" encoding="utf-8"?>
<!-- Generator: Adobe Illustrator 24.0.3, SVG Export Plug-In . SVG Version: 6.00 Build 0)  -->
<svg version="1.1" id="Calque_1" xmlns="http://www.w3.org/2000/svg" xmlns:xlink="http://www.w3.org/1999/xlink" x="0px" y="0px"
	 viewBox="0 0 8.8 8.8" style="enable-background:new 0 0 8.8 8.8;" xml:space="preserve">
<path d="M8.8,6c0-1.3-0.9-2.4-2.1-2.8C6.7,1.4,5.2,0,3.4,0C1.5,0,0,1.5,0,3.4C0,4,0.2,4.6,0.5,5.1L0,6.7l1.6-0.5
	c0.5,0.3,1,0.4,1.6,0.5C3.6,8,4.7,8.8,6,8.8c0.5,0,1-0.1,1.5-0.4l1.4,0.4L8.4,7.4C8.7,7,8.8,6.5,8.8,6z M1.7,5.7L0.7,6L1,5L1,4.9
	c-0.3-0.5-0.5-1-0.5-1.5c0-1.6,1.3-2.8,2.9-2.8s2.8,1.3,2.8,2.8S4.9,6.2,3.4,6.2c-0.5,0-1.1-0.2-1.5-0.5L1.7,5.7z M8.1,8.1L7.3,7.9
	L7.3,7.9C6.9,8.2,6.4,8.3,6,8.3c-1,0-1.9-0.6-2.2-1.6c1.6-0.2,2.8-1.4,3-3C7.6,4.1,8.3,5,8.3,6c0,0.5-0.1,0.9-0.4,1.3L7.9,7.4
	L8.1,8.1z"/>
<path d="M3.1,4.7h0.5v0.5H3.1V4.7z"/>
<path d="M3.9,2.6c0,0.1-0.1,0.3-0.2,0.4L3.1,3.5v0.6h0.5V3.8l0.4-0.4c0.2-0.2,0.3-0.5,0.3-0.8c0-0.6-0.5-1-1-1s-1,0.5-1,1h0.5
	c0-0.3,0.2-0.5,0.5-0.5S3.9,2.3,3.9,2.6z"/>
</svg>
