<?xml version="1.0" encoding="utf-8"?>
<!-- Generator: Adobe Illustrator 24.0.3, SVG Export Plug-In . SVG Version: 6.00 Build 0)  -->
<svg version="1.1" id="Calque_1" xmlns="http://www.w3.org/2000/svg" xmlns:xlink="http://www.w3.org/1999/xlink" x="0px" y="0px"
	 viewBox="0 0 6.1 5.9" style="enable-background:new 0 0 6.1 5.9;" xml:space="preserve">
<path d="M5.7,0.1H0.3C0.1,0.1,0,0.2,0,0.4v5.2c0,0.2,0.1,0.3,0.3,0.3h5.4c0.2,0,0.3-0.1,0.3-0.3V0.4C6.1,0.2,5.9,0.1,5.7,0.1z
	 M0.3,0.3h5.4c0.1,0,0.1,0,0.1,0.1v0.5H0.2V0.4C0.2,0.3,0.2,0.3,0.3,0.3z M5.7,5.7H0.3c-0.1,0-0.1,0-0.1-0.1V1.1h5.7v4.5
	C5.9,5.7,5.8,5.7,5.7,5.7z"/>
<circle cx="1.3" cy="0.6" r="0.1"/>
<circle cx="0.9" cy="0.6" r="0.1"/>
<circle cx="0.5" cy="0.6" r="0.1"/>
<path d="M5.3,1.5H0.7c-0.1,0-0.1,0-0.1,0.1v1.6c0,0.1,0,0.1,0.1,0.1h4.6c0.1,0,0.1,0,0.1-0.1V1.6C5.4,1.5,5.4,1.5,5.3,1.5z M3.7,3
	l0.2-0.2l0.4,0.4H3.8L3.7,3z M3.5,3.1H2.7l0.4-0.5L3.5,3.1z M2.5,3.1H1.7l0.5-0.7l0.4,0.6L2.5,3.1z M5.2,3.1H4.6L4,2.5
	c0,0-0.1,0-0.1,0l0,0L3.6,2.8L3.2,2.3c0,0-0.1-0.1-0.1,0c0,0,0,0,0,0L2.7,2.8L2.3,2.1c0,0-0.1-0.1-0.1,0c0,0,0,0,0,0l-0.7,1H0.8V1.7
	h4.4L5.2,3.1L5.2,3.1z"/>
<circle cx="3.6" cy="2.2" r="0.1"/>
<circle cx="3.4" cy="3.6" r="0.1"/>
<circle cx="3" cy="3.6" r="0.1"/>
<circle cx="2.6" cy="3.6" r="0.1"/>
<path d="M1.9,3.9H0.7C0.6,3.9,0.6,4,0.6,4v0.8c0,0.1,0,0.1,0.1,0.1h1.2C2,4.9,2,4.9,2,4.8V4C2,4,2,3.9,1.9,3.9z M1.8,4.1v0.6
	L1.4,4.3c0,0-0.1,0-0.1,0L0.8,4.7V4.1L1.8,4.1L1.8,4.1z M1.5,4.7H1.1l0.2-0.2L1.5,4.7z"/>
<path d="M3.6,3.9H2.4C2.4,3.9,2.3,4,2.3,4v0.8c0,0.1,0,0.1,0.1,0.1h1.2c0.1,0,0.1,0,0.1-0.1V4C3.7,4,3.7,3.9,3.6,3.9z M3.5,4.1v0.6
	L3.1,4.3c0,0-0.1,0-0.1,0L2.5,4.7V4.1L3.5,4.1L3.5,4.1z M3.2,4.7H2.8L3,4.5L3.2,4.7z"/>
<path d="M5.3,3.9H4.1C4.1,3.9,4,4,4,4v0.8c0,0.1,0,0.1,0.1,0.1h1.2c0.1,0,0.1,0,0.1-0.1V4C5.4,4,5.4,3.9,5.3,3.9z M5.2,4.1v0.6
	L4.8,4.3c0,0-0.1,0-0.1,0L4.2,4.7V4.1L5.2,4.1L5.2,4.1z M5,4.7H4.5l0.2-0.2L5,4.7z"/>
<path d="M1.7,5.1H0.9c-0.1,0-0.1,0-0.1,0.1s0,0.1,0.1,0.1h0.8c0.1,0,0.1,0,0.1-0.1S1.8,5.1,1.7,5.1z"/>
<path d="M3.4,5.1H2.6c-0.1,0-0.1,0-0.1,0.1s0,0.1,0.1,0.1h0.8c0.1,0,0.1,0,0.1-0.1S3.5,5.1,3.4,5.1z"/>
<path d="M5.1,5.1H4.3c-0.1,0-0.1,0-0.1,0.1s0,0.1,0.1,0.1h0.8c0.1,0,0.1,0,0.1-0.1S5.2,5.1,5.1,5.1z"/>
</svg>
