<?xml version="1.0" encoding="utf-8"?>
<!-- Generator: Adobe Illustrator 24.0.3, SVG Export Plug-In . SVG Version: 6.00 Build 0)  -->
<svg version="1.1" id="Calque_1" xmlns="http://www.w3.org/2000/svg" xmlns:xlink="http://www.w3.org/1999/xlink" x="0px" y="0px"
	 viewBox="0 0 8.6 5.4" style="enable-background:new 0 0 8.6 5.4;" xml:space="preserve">
<style type="text/css">
	.st0{clip-path:url(#SVGID_2_);}
	.st1{clip-path:url(#SVGID_4_);fill:#FEEB19;}
	.st2{clip-path:url(#SVGID_6_);}
	.st3{clip-path:url(#SVGID_8_);fill:#FEEB19;}
	.st4{clip-path:url(#SVGID_10_);fill:#FEEB19;}
	.st5{clip-path:url(#SVGID_12_);}
	.st6{clip-path:url(#SVGID_14_);fill:#FEEB19;}
	.st7{clip-path:url(#SVGID_16_);}
	.st8{clip-path:url(#SVGID_18_);fill:#FEEB19;}
	.st9{clip-path:url(#SVGID_20_);}
	.st10{clip-path:url(#SVGID_22_);fill:#FEEB19;}
	.st11{clip-path:url(#SVGID_24_);}
	.st12{clip-path:url(#SVGID_26_);fill:#FEEB19;}
	.st13{clip-path:url(#SVGID_28_);}
	.st14{clip-path:url(#SVGID_30_);fill:#FEEB19;}
	.st15{clip-path:url(#SVGID_32_);}
	.st16{clip-path:url(#SVGID_34_);fill:#FEEB19;}
	.st17{clip-path:url(#SVGID_36_);}
	.st18{clip-path:url(#SVGID_38_);fill:#FEEB19;}
	.st19{clip-path:url(#SVGID_40_);}
	.st20{clip-path:url(#SVGID_42_);fill:#FEEB19;}
	.st21{clip-path:url(#SVGID_44_);}
	.st22{clip-path:url(#SVGID_46_);fill:#FEEB19;}
	.st23{clip-path:url(#SVGID_48_);}
	.st24{clip-path:url(#SVGID_50_);fill:#FEEB19;}
	.st25{clip-path:url(#SVGID_52_);}
	.st26{clip-path:url(#SVGID_54_);fill:#FEEB19;}
</style>
<g>
	<g>
		<g>
			<defs>
				<polygon id="SVGID_1_" points="0.6,0.4 0.6,0.5 0.2,0.5 0.2,0.1 0.4,0.1 0.4,0.4 				"/>
			</defs>
			<clipPath id="SVGID_2_">
				<use xlink:href="#SVGID_1_"  style="overflow:visible;"/>
			</clipPath>
			<g class="st0">
				<g>
					<g>
						<g>
							<defs>
								<rect id="SVGID_3_" x="-0.1" y="-1" width="8.9" height="8.3"/>
							</defs>
							<clipPath id="SVGID_4_">
								<use xlink:href="#SVGID_3_"  style="overflow:visible;"/>
							</clipPath>
							<path class="st1" d="M0.2,0.1h0.4v0.5H0.2C0.2,0.6,0.2,0.1,0.2,0.1z"/>
						</g>
					</g>
				</g>
			</g>
		</g>
	</g>
</g>
<g>
	<g>
		<g>
			<defs>
				<path id="SVGID_5_" d="M0.6,0.3L0.6,0.3C0.6,0.3,0.6,0.2,0.6,0.3C0.6,0.2,0.6,0.2,0.6,0.3C0.6,0.2,0.7,0.2,0.6,0.3
					C0.7,0.3,0.6,0.3,0.6,0.3L0.6,0.3C0.6,0.3,0.6,0.3,0.6,0.3L0.6,0.3z"/>
			</defs>
			<clipPath id="SVGID_6_">
				<use xlink:href="#SVGID_5_"  style="overflow:visible;"/>
			</clipPath>
			<g class="st2">
				<g>
					<g>
						<g>
							<defs>
								<rect id="SVGID_7_" x="-0.1" y="-1" width="8.9" height="8.3"/>
							</defs>
							<clipPath id="SVGID_8_">
								<use xlink:href="#SVGID_7_"  style="overflow:visible;"/>
							</clipPath>
							<path class="st3" d="M0.5,0.2h0.2v0.2H0.5V0.2z"/>
						</g>
					</g>
				</g>
			</g>
		</g>
	</g>
</g>
<g>
	<g>
		<g>
			<defs>
				<rect id="SVGID_9_" x="6.7" y="0.1" width="0.1" height="0.4"/>
			</defs>
			<clipPath id="SVGID_10_">
				<use xlink:href="#SVGID_9_"  style="overflow:visible;"/>
			</clipPath>
			<path class="st4" d="M6.6,0.1h0.2v0.5H6.6V0.1z"/>
		</g>
	</g>
</g>
<g>
	<g>
		<g>
			<defs>
				<path id="SVGID_11_" d="M7.2,0.1v0.4H7.1V0.4c0-0.1,0-0.1,0-0.1l0,0.1l0,0.1H7L7,0.3l0-0.1c0,0,0,0.1,0,0.1v0.1H6.8V0.1h0.1
					L7,0.2c0.1,0,0.1,0.1,0.1,0.1s0,0,0-0.1L7.2,0.1L7.2,0.1L7.2,0.1z"/>
			</defs>
			<clipPath id="SVGID_12_">
				<use xlink:href="#SVGID_11_"  style="overflow:visible;"/>
			</clipPath>
			<g class="st5">
				<g>
					<g>
						<g>
							<defs>
								<rect id="SVGID_13_" x="-0.1" y="-1" width="8.9" height="8.3"/>
							</defs>
							<clipPath id="SVGID_14_">
								<use xlink:href="#SVGID_13_"  style="overflow:visible;"/>
							</clipPath>
							<path class="st6" d="M6.8,0.1h0.4v0.5H6.8V0.1z"/>
						</g>
					</g>
				</g>
			</g>
		</g>
	</g>
</g>
<g>
	<g>
		<g>
			<defs>
				<path id="SVGID_15_" d="M7.5,0.4L7.5,0.4c0-0.1-0.1-0.1-0.1-0.1S7.4,0.3,7.5,0.4H7.4H7.5z M7.5,0.4H7.4l0,0.1H7.2l0.1-0.4h0.1
					l0.1,0.4L7.5,0.4L7.5,0.4z"/>
			</defs>
			<clipPath id="SVGID_16_">
				<use xlink:href="#SVGID_15_"  style="overflow:visible;"/>
			</clipPath>
			<g class="st7">
				<g>
					<g>
						<g>
							<defs>
								<rect id="SVGID_17_" x="-0.1" y="-1" width="8.9" height="8.3"/>
							</defs>
							<clipPath id="SVGID_18_">
								<use xlink:href="#SVGID_17_"  style="overflow:visible;"/>
							</clipPath>
							<path class="st8" d="M7.2,0.1h0.5v0.5H7.2V0.1z"/>
						</g>
					</g>
				</g>
			</g>
		</g>
	</g>
</g>
<g>
	<g>
		<g>
			<defs>
				<path id="SVGID_19_" d="M7.9,0.5c0,0-0.1,0-0.1,0c-0.1,0-0.2-0.1-0.2-0.2s0.1-0.2,0.2-0.2c0.1,0,0.1,0,0.2,0.1l-0.1,0
					c0,0-0.1,0-0.1,0c-0.1,0-0.1,0.1-0.1,0.1C7.7,0.4,7.8,0.4,7.9,0.5c0-0.1,0-0.1,0-0.1H7.8V0.3H8L7.9,0.5L7.9,0.5
					C7.9,0.5,7.9,0.5,7.9,0.5z"/>
			</defs>
			<clipPath id="SVGID_20_">
				<use xlink:href="#SVGID_19_"  style="overflow:visible;"/>
			</clipPath>
			<g class="st9">
				<g>
					<g>
						<g>
							<defs>
								<rect id="SVGID_21_" x="-0.1" y="-1" width="8.9" height="8.3"/>
							</defs>
							<clipPath id="SVGID_22_">
								<use xlink:href="#SVGID_21_"  style="overflow:visible;"/>
							</clipPath>
							<path class="st10" d="M7.6,0.1H8v0.5H7.6V0.1z"/>
						</g>
					</g>
				</g>
			</g>
		</g>
	</g>
</g>
<g>
	<g>
		<g>
			<defs>
				<polygon id="SVGID_23_" points="8.4,0.4 8.4,0.5 8.1,0.5 8.1,0.1 8.4,0.1 8.4,0.2 8.2,0.2 8.2,0.3 8.3,0.3 8.3,0.4 8.2,0.4 
					8.2,0.4 				"/>
			</defs>
			<clipPath id="SVGID_24_">
				<use xlink:href="#SVGID_23_"  style="overflow:visible;"/>
			</clipPath>
			<g class="st11">
				<g>
					<g>
						<g>
							<defs>
								<rect id="SVGID_25_" x="-0.1" y="-1" width="8.9" height="8.3"/>
							</defs>
							<clipPath id="SVGID_26_">
								<use xlink:href="#SVGID_25_"  style="overflow:visible;"/>
							</clipPath>
							<path class="st12" d="M8,0.1h0.4v0.5H8V0.1z"/>
						</g>
					</g>
				</g>
			</g>
		</g>
	</g>
</g>
<g>
	<g>
		<g>
			<defs>
				<path id="SVGID_27_" d="M0.5,4.9C0.5,4.9,0.4,4.9,0.5,4.9c-0.1-0.1-0.1,0-0.1,0C0.4,5,0.4,5,0.5,4.9C0.5,5,0.6,5,0.6,5.1
					S0.5,5.2,0.4,5.2S0.3,5.2,0.2,5.1l0.1,0c0,0,0,0.1,0.1,0.1c0,0,0.1,0,0.1,0c0,0-0.1,0-0.1-0.1c0,0-0.1-0.1-0.1-0.1
					c0-0.1,0.1-0.1,0.1-0.1S0.6,4.9,0.5,4.9L0.5,4.9z"/>
			</defs>
			<clipPath id="SVGID_28_">
				<use xlink:href="#SVGID_27_"  style="overflow:visible;"/>
			</clipPath>
			<g class="st13">
				<g>
					<g>
						<g>
							<defs>
								<rect id="SVGID_29_" x="-0.1" y="-1" width="8.9" height="8.3"/>
							</defs>
							<clipPath id="SVGID_30_">
								<use xlink:href="#SVGID_29_"  style="overflow:visible;"/>
							</clipPath>
							<path class="st14" d="M0.2,4.8h0.4v0.5H0.2C0.2,5.2,0.2,4.8,0.2,4.8z"/>
						</g>
					</g>
				</g>
			</g>
		</g>
	</g>
</g>
<g>
	<g>
		<g>
			<defs>
				<path id="SVGID_31_" d="M0.8,5L0.8,5C0.8,5,0.8,4.9,0.8,4.9S0.7,5,0.8,5H0.7H0.8z M0.9,5.1H0.7l0,0.1H0.6l0.2-0.4h0.1L1,5.2
					L0.9,5.1L0.9,5.1z"/>
			</defs>
			<clipPath id="SVGID_32_">
				<use xlink:href="#SVGID_31_"  style="overflow:visible;"/>
			</clipPath>
			<g class="st15">
				<g>
					<g>
						<g>
							<defs>
								<rect id="SVGID_33_" x="-0.1" y="-1" width="8.9" height="8.3"/>
							</defs>
							<clipPath id="SVGID_34_">
								<use xlink:href="#SVGID_33_"  style="overflow:visible;"/>
							</clipPath>
							<path class="st16" d="M0.5,4.8H1v0.5H0.5V4.8z"/>
						</g>
					</g>
				</g>
			</g>
		</g>
	</g>
</g>
<g>
	<g>
		<g>
			<defs>
				<path id="SVGID_35_" d="M1.4,4.8v0.4H1.3L1.2,5.1C1.1,5,1.1,5,1.1,5v0.1v0.1H1V4.8h0.1l0.1,0.1C1.2,5,1.3,5,1.3,5S1.3,5,1.4,4.8
					L1.4,4.8L1.4,4.8L1.4,4.8z"/>
			</defs>
			<clipPath id="SVGID_36_">
				<use xlink:href="#SVGID_35_"  style="overflow:visible;"/>
			</clipPath>
			<g class="st17">
				<g>
					<g>
						<g>
							<defs>
								<rect id="SVGID_37_" x="-0.1" y="-1" width="8.9" height="8.3"/>
							</defs>
							<clipPath id="SVGID_38_">
								<use xlink:href="#SVGID_37_"  style="overflow:visible;"/>
							</clipPath>
							<path class="st18" d="M1,4.8h0.4v0.5H1V4.8z"/>
						</g>
					</g>
				</g>
			</g>
		</g>
	</g>
</g>
<g>
	<g>
		<g>
			<defs>
				<path id="SVGID_39_" d="M1.6,4.9C1.6,4.9,1.6,4.9,1.6,4.9c-0.1-0.1-0.1,0-0.1,0C1.5,5,1.6,5,1.6,4.9C1.7,5,1.7,5,1.7,5.1
					c0,0.1-0.1,0.1-0.2,0.1c-0.1,0-0.1-0.1-0.2-0.1l0.1,0c0,0,0,0.1,0.1,0.1c0,0,0.1,0,0.1,0c0,0-0.1,0-0.1-0.1C1.5,5,1.4,5,1.4,4.9
					c0-0.1,0.1-0.1,0.1-0.1S1.7,4.9,1.6,4.9L1.6,4.9z"/>
			</defs>
			<clipPath id="SVGID_40_">
				<use xlink:href="#SVGID_39_"  style="overflow:visible;"/>
			</clipPath>
			<g class="st19">
				<g>
					<g>
						<g>
							<defs>
								<rect id="SVGID_41_" x="-0.1" y="-1" width="8.9" height="8.3"/>
							</defs>
							<clipPath id="SVGID_42_">
								<use xlink:href="#SVGID_41_"  style="overflow:visible;"/>
							</clipPath>
							<path class="st20" d="M1.4,4.8h0.4v0.5H1.4V4.8z"/>
						</g>
					</g>
				</g>
			</g>
		</g>
	</g>
</g>
<g>
	<g>
		<g>
			<defs>
				<path id="SVGID_43_" d="M7.5,4.8v0.4H7.4L7.3,5.1C7.3,5,7.2,5,7.2,5v0.2v0.1H7.1V4.8h0.1l0.1,0.1c0,0,0.1,0.1,0.1,0.1
					s0-0.1,0-0.1L7.5,4.8L7.5,4.8L7.5,4.8z"/>
			</defs>
			<clipPath id="SVGID_44_">
				<use xlink:href="#SVGID_43_"  style="overflow:visible;"/>
			</clipPath>
			<g class="st21">
				<g>
					<g>
						<g>
							<defs>
								<rect id="SVGID_45_" x="-0.1" y="-1" width="8.9" height="8.3"/>
							</defs>
							<clipPath id="SVGID_46_">
								<use xlink:href="#SVGID_45_"  style="overflow:visible;"/>
							</clipPath>
							<path class="st22" d="M7.1,4.8h0.4v0.5H7.1V4.8z"/>
						</g>
					</g>
				</g>
			</g>
		</g>
	</g>
</g>
<g>
	<g>
		<g>
			<defs>
				<path id="SVGID_47_" d="M7.7,5.1c0.1,0,0.1-0.1,0.1-0.1c0-0.1-0.1-0.1-0.1-0.1C7.7,4.9,7.6,5,7.6,5C7.6,5.1,7.7,5.1,7.7,5.1
					 M7.7,4.8c0.1,0,0.2,0.1,0.2,0.2c0,0.1-0.1,0.2-0.2,0.2C7.6,5.2,7.5,5.1,7.5,5C7.5,4.9,7.6,4.8,7.7,4.8"/>
			</defs>
			<clipPath id="SVGID_48_">
				<use xlink:href="#SVGID_47_"  style="overflow:visible;"/>
			</clipPath>
			<g class="st23">
				<g>
					<g>
						<g>
							<defs>
								<rect id="SVGID_49_" x="-0.1" y="-1" width="8.9" height="8.3"/>
							</defs>
							<clipPath id="SVGID_50_">
								<use xlink:href="#SVGID_49_"  style="overflow:visible;"/>
							</clipPath>
							<path class="st24" d="M7.5,4.8H8v0.5H7.5V4.8z"/>
						</g>
					</g>
				</g>
			</g>
		</g>
	</g>
</g>
<g>
	<g>
		<g>
			<defs>
				<path id="SVGID_51_" d="M8.4,4.8v0.4H8.3V5.1c0-0.1,0-0.1,0-0.1l0,0.1L8.2,5.1H8.2L8.1,5l0-0.1c0,0,0,0.1,0,0.1v0.1H8V4.9h0.1
					L8.1,5c0,0.1,0,0.1,0,0.1s0,0,0-0.1l0.1-0.1L8.4,4.8L8.4,4.8z"/>
			</defs>
			<clipPath id="SVGID_52_">
				<use xlink:href="#SVGID_51_"  style="overflow:visible;"/>
			</clipPath>
			<g class="st25">
				<g>
					<g>
						<g>
							<defs>
								<rect id="SVGID_53_" x="-0.1" y="-1" width="8.9" height="8.3"/>
							</defs>
							<clipPath id="SVGID_54_">
								<use xlink:href="#SVGID_53_"  style="overflow:visible;"/>
							</clipPath>
							<path class="st26" d="M7.9,4.8h0.5v0.5H7.9V4.8z"/>
						</g>
					</g>
				</g>
			</g>
		</g>
	</g>
</g>
</svg>
