<?xml version="1.0" encoding="utf-8"?>
<!-- Generator: Adobe Illustrator 24.0.3, SVG Export Plug-In . SVG Version: 6.00 Build 0)  -->
<svg version="1.1" id="Calque_1" xmlns="http://www.w3.org/2000/svg" xmlns:xlink="http://www.w3.org/1999/xlink" x="0px" y="0px"
	 viewBox="0 0 7.5 5.6" style="enable-background:new 0 0 7.5 5.6;" xml:space="preserve">
<path d="M0.8,4.9H0.5c-0.1,0-0.1,0-0.1,0.1c0,0.1,0,0.1,0.1,0.1h0.4c0.1,0,0.1,0,0.1-0.1S0.9,4.9,0.8,4.9z"/>
<path d="M1.3,4.9H1.2c-0.1,0-0.1,0-0.1,0.1c0,0.1,0,0.1,0.1,0.1h0.1c0.1,0,0.1,0,0.1-0.1S1.4,4.9,1.3,4.9z"/>
<path d="M6.9,1.5H6.6V0.6c0-0.3-0.2-0.5-0.5-0.5h-5c-0.3,0-0.5,0.2-0.5,0.5v2.1H0.5C0.2,2.7,0,2.9,0,3.2v1.9c0,0.3,0.2,0.5,0.5,0.5
	h1.2c0.3,0,0.5-0.2,0.5-0.5V4.7h1L3.1,4.9H2.7c-0.1,0-0.1,0-0.1,0.1v0.4c0,0.1,0,0.1,0.1,0.1h4.2c0.3,0,0.5-0.2,0.5-0.5V2
	C7.4,1.7,7.1,1.5,6.9,1.5z M1.9,5.1c0,0.1-0.1,0.2-0.2,0.2H0.5c-0.1,0-0.2-0.1-0.2-0.2V3.2c0-0.1,0.1-0.2,0.2-0.2h0.2l0.1,0.3
	c0,0,0.1,0.1,0.1,0.1h0.5c0,0,0.1,0,0.1-0.1l0.1-0.3h0.2c0.1,0,0.2,0.1,0.2,0.2L1.9,5.1L1.9,5.1z M0.9,3h0.4l0,0.1H0.9L0.9,3z
	 M2.1,4.5V4.1h2.1v0.4H2.1z M4.3,4.7v0.2h0L4.3,4.7L4.3,4.7z M4,4.9H3.4l0.1-0.2h0.5L4,4.9z M2.9,5.3V5.2h1.4c0,0,0,0.1,0,0.1H2.9z
	 M4.3,2v1.9H2.1V3.2c0-0.3-0.2-0.5-0.5-0.5H1V0.6c0-0.1,0.1-0.2,0.2-0.2h5c0.1,0,0.2,0.1,0.2,0.2v0.9H4.7C4.5,1.5,4.3,1.7,4.3,2z
	 M7.1,5.1c0,0.1-0.1,0.2-0.2,0.2H4.7c-0.1,0-0.2-0.1-0.2-0.2V2c0-0.1,0.1-0.2,0.2-0.2h2.1C7,1.8,7.1,1.9,7.1,2L7.1,5.1L7.1,5.1z"/>
<path d="M6.9,1.9H4.8c-0.1,0-0.1,0-0.1,0.1v2.7c0,0.1,0,0.1,0.1,0.1h2.1c0.1,0,0.1,0,0.1-0.1V2C7,1.9,6.9,1.9,6.9,1.9z M6.8,4.6H4.9
	V2.1h1.9L6.8,4.6L6.8,4.6z"/>
<circle cx="5.7" cy="5.1" r="0.1"/>
</svg>
